<svg width="80" height="67" viewBox="0 0 80 67" fill="none" xmlns="http://www.w3.org/2000/svg">
<path d="M75.4939 51.9804H73.4244L70.0208 45.6206C71.8535 43.5814 72.9631 40.8922 72.9631 37.9608C72.9631 37.6167 72.9381 37.2853 72.9132 36.9412C72.9381 36.852 72.9631 36.7755 72.9631 36.6863V12.5853C72.9631 12.5471 72.9631 12.5088 72.9631 12.4706C72.9631 11.7696 72.4021 11.1961 71.6914 11.1961C69.5595 11.1961 67.889 9.52647 67.8765 7.38529C67.8765 7.3598 67.8765 7.33431 67.8765 7.32157C67.8391 6.63333 67.2781 6.04706 66.5799 6.11078C66.4677 6.11078 66.3555 6.13627 66.2433 6.16177L13.3827 6.09804C12.6846 6.09804 12.1111 6.67157 12.1111 7.37255C12.1111 7.43627 12.1111 7.51274 12.1236 7.57647C12.0363 9.67941 10.4654 11.1961 8.33357 11.1961C7.63541 11.1961 7.06192 11.7696 7.06192 12.4706L7.04946 43.0588C7.04946 43.3902 7.18659 43.7216 7.42347 43.9637C7.64788 44.1931 7.97202 44.3333 8.30863 44.3333C10.5153 44.3333 12.1111 45.9265 12.1111 48.1441C12.1111 48.8451 12.6721 49.4186 13.3827 49.4186L51.0334 49.4314L49.6745 51.9804H4.50617V3.54902H75.4814L75.4939 51.9804ZM70.532 58.3912C70.0458 58.302 69.5596 58.4931 69.2603 58.8882L67.116 61.8578L63.5379 49.2529C65.1961 48.9598 66.7295 48.2843 68.0635 47.3539L74.3719 59.1431L70.532 58.3912ZM62.1915 46.8569C61.8798 46.8824 61.5557 46.8696 61.244 46.8696C56.494 46.7039 52.6791 42.7784 52.6791 37.9608C52.6791 33.0412 56.6561 29.0392 61.5557 29.0392C66.4428 29.0392 70.4323 33.0412 70.4323 37.9608C70.4198 42.6255 66.8043 46.5255 62.1915 46.8569ZM61.4185 51.9804L61.5432 51.5216L61.6679 51.9804H61.4185ZM52.4048 46.8824L14.5297 46.8696C14.2928 45.6206 13.7069 44.4863 12.8217 43.6069C11.9366 42.7275 10.8145 42.1412 9.58028 41.9118L9.60521 13.6304C12.161 13.1461 14.0684 11.2216 14.5547 8.64706L65.4828 8.69804C65.994 11.2088 67.9264 13.1333 70.4198 13.6176V30.7598C68.3253 28.1598 65.1337 26.4902 61.5432 26.4902C55.2473 26.4902 50.1358 31.6392 50.1358 37.9608C50.1358 40.9049 51.2578 43.5941 53.078 45.6206L52.4048 46.8824ZM55.9704 61.8578L53.8261 58.8882C53.5393 58.4931 53.0406 58.2892 52.5544 58.3912L48.7145 59.1431L55.0229 47.3667C56.3569 48.2971 57.8903 48.9598 59.5485 49.2529L55.9704 61.8578ZM78.0247 53.2549V2.27451C78.0247 1.57353 77.4637 1 76.7531 1H3.24699C2.53636 1 1.97534 1.57353 1.97534 2.27451V53.2549C1.97534 53.9559 2.53636 54.5294 3.24699 54.5294H48.3156L45.2238 60.3029C44.9869 60.7363 45.0243 61.2716 45.3235 61.6667C45.6102 62.0618 46.1089 62.2529 46.5827 62.1637L52.2552 61.0549L55.4593 65.4774C55.6961 65.8088 56.0826 66 56.4816 66C56.5564 66 56.6312 65.9873 56.706 65.9873C57.1797 65.898 57.5662 65.5539 57.7033 65.0824L60.6954 54.5294H62.4034L65.3955 65.0696C65.5327 65.5412 65.9192 65.8853 66.3929 65.9745C66.4677 65.9873 66.5425 65.9873 66.6173 65.9873C67.0163 65.9873 67.4027 65.7961 67.6396 65.4647L70.8437 61.0422L76.5162 62.151C77.0024 62.2402 77.4886 62.049 77.7754 61.6539C78.0621 61.2588 78.0995 60.7235 77.8751 60.2902L74.7833 54.5294H76.7531C77.4637 54.5294 78.0247 53.9559 78.0247 53.2549Z" fill="white"/>
<path d="M61.2345 41.6C59.2747 41.6 57.6766 39.98 57.6766 38C57.6766 36.02 59.2747 34.4 61.2345 34.4C63.1942 34.4 64.7924 36.02 64.7924 38C64.7924 39.98 63.1942 41.6 61.2345 41.6ZM61.2345 32C57.9682 32 55.3086 34.688 55.3086 38C55.3086 41.312 57.9682 44 61.2345 44C64.5007 44 67.1604 41.312 67.1604 38C67.1721 34.688 64.5124 32 61.2345 32Z" fill="#EB0029"/>
<path d="M62.6624 13.1373H17.3378C16.6034 13.1373 16.0001 13.7284 16.0001 14.451C16.0001 15.1735 16.5903 15.7647 17.3378 15.7647H62.6755C63.41 15.7647 64.0132 15.1735 64.0132 14.451C64.0001 13.7284 63.41 13.1373 62.6624 13.1373Z" fill="white"/>
<path d="M62.6624 21.0196H17.3378C16.6034 21.0196 16.0001 21.6108 16.0001 22.3333C16.0001 23.0559 16.5903 23.647 17.3378 23.647H62.6755C63.41 23.647 64.0132 23.0559 64.0132 22.3333C64.0001 21.6108 63.41 21.0196 62.6624 21.0196Z" fill="white"/>
<path d="M40.0001 28.902H17.3378C16.6034 28.902 16.0001 29.4932 16.0001 30.2157C16.0001 30.9383 16.5903 31.5294 17.3378 31.5294H40.0001C40.7345 31.5294 41.3378 30.9383 41.3378 30.2157C41.3378 29.4932 40.7345 28.902 40.0001 28.902Z" fill="white"/>
<path d="M40.0001 36.7843H17.3378C16.6034 36.7843 16.0001 37.3755 16.0001 38.098C16.0001 38.8206 16.5903 39.4118 17.3378 39.4118H40.0001C40.7345 39.4118 41.3378 38.8206 41.3378 38.098C41.3378 37.3755 40.7345 36.7843 40.0001 36.7843Z" fill="white"/>
</svg>
