<svg width="80" height="80" viewBox="0 0 80 80" fill="none" xmlns="http://www.w3.org/2000/svg">
<path d="M38.6892 29.643C38.6892 20.3901 31.1717 12.8689 21.9235 12.8689C12.6752 12.8689 5.15771 20.3901 5.15771 29.643C5.15771 38.8959 12.6752 46.4172 21.9235 46.4172C31.1717 46.4172 38.6892 38.8959 38.6892 29.643ZM7.72765 29.643C7.72765 21.8244 14.0913 15.4401 21.9235 15.4401C29.7556 15.4401 36.1193 21.8069 36.1193 29.643C36.1193 37.4791 29.7556 43.846 21.9235 43.846C14.0913 43.846 7.72765 37.4616 7.72765 29.643Z" fill="white"/>
<path d="M30.035 22.2793L16.7658 35.5552L13.8112 32.5992L11.9756 34.4183L16.7658 39.2109L31.8707 24.0984L30.035 22.2793Z" fill="#EB0029"/>
<path d="M76.0839 8.81114L75.9266 7.70919H71.2238C64.6853 7.70919 58.3741 5.3654 53.4091 1.11506C51.6783 -0.371686 48.9161 -0.371686 47.1853 1.11506C42.2203 5.3654 35.9091 7.70919 29.3706 7.70919H21.9231C9.82518 7.70919 0 17.5567 0 29.6431C0 39.9628 7.16783 48.6209 16.7657 50.9473V55.46C16.7657 56.1596 16.958 56.7893 17.2902 57.3665C16.2063 58.0487 15.4895 59.2556 15.4895 60.6374V73.5458C15.4895 77.0965 18.3741 80 21.9406 80C25.507 80 28.3916 77.114 28.3916 73.5458V60.6374C28.3916 59.2556 27.6748 58.0662 26.5909 57.3665C26.9056 56.8068 27.1154 56.1596 27.1154 55.46V53.3435C32.8671 58.3985 41.1364 63.4359 44.7902 65.5698C46.4685 66.5493 48.3916 67.0741 50.3322 67.0741C52.2727 67.0741 54.1958 66.5493 55.8741 65.5698C64.8776 60.305 80 50.475 80 43.8459C79.965 36.0973 76.2413 9.91308 76.0839 8.81114ZM2.56993 29.6431C2.56993 18.9735 11.2413 10.2804 21.9231 10.2804C32.6049 10.2804 41.2762 18.956 41.2762 29.6431C41.2762 40.3302 32.6049 49.0058 21.9231 49.0058C11.2413 49.0058 2.56993 40.3127 2.56993 29.6431ZM38.6888 43.7409C41.9056 39.9279 43.8462 34.9954 43.8462 29.6256C43.8462 25.9 42.9021 22.3843 41.2587 19.3058H61.9056V47.6939H38.6888V43.7409ZM64.493 50.2826V16.7346H39.6154C39.021 15.9125 38.3741 15.1429 37.6748 14.4083C42.2378 13.2888 46.5559 11.2949 50.2972 8.51377C55.7692 12.5717 62.3951 14.968 69.1783 15.3703C70.035 21.6846 72.1154 37.689 72.2203 43.4086C71.4161 45.1402 65.6993 50.8248 51.9406 58.8532C50.9441 59.4304 49.6504 59.4304 48.6538 58.8532C41.014 54.3755 36.1713 50.8248 33.2168 48.3761C34.2308 47.7639 35.2098 47.0817 36.1014 46.3121V50.2651H64.493V50.2826ZM21.9231 51.5769C22.7972 51.5769 23.6538 51.507 24.5105 51.4195V55.46C24.5105 56.1771 23.9336 56.7543 23.2168 56.7543H20.6294C19.9126 56.7543 19.3357 56.1771 19.3357 55.46V51.4195C20.1923 51.507 21.049 51.5769 21.9231 51.5769ZM25.7867 73.5108C25.7867 75.6447 24.0559 77.3763 21.9231 77.3763C19.7902 77.3763 18.0594 75.6447 18.0594 73.5108V60.6023C18.0594 59.8852 18.6364 59.308 19.3531 59.308H20.6469H23.2343H24.528C25.2448 59.308 25.8217 59.8852 25.8217 60.6023V73.5108H25.7867ZM54.5455 63.331C51.9755 64.8352 48.6189 64.8352 46.049 63.331C42.2902 61.1271 33.5664 55.8098 28.007 50.7024C28.951 50.4225 29.8776 50.0902 30.7692 49.7054C33.7063 52.2416 38.8462 56.1246 47.3601 61.1096C48.2518 61.6343 49.2657 61.8967 50.3147 61.8967C51.3462 61.8967 52.3776 61.6168 53.2692 61.0921C66.8007 53.1861 73.8986 46.7144 74.7727 44.0558L74.8427 43.8459V43.636C74.7902 37.6365 72.3776 19.3933 71.6259 13.9535L71.486 12.8691L70.3846 12.8341C63.4266 12.6417 56.5909 10.1755 51.1364 5.87265L50.3322 5.24294L49.528 5.87265C45.4196 9.10851 40.507 11.3124 35.3147 12.2744C34.2832 11.4698 33.1818 10.7526 32.0105 10.1579C38.2168 9.61572 44.1434 7.14947 48.8986 3.05655C49.6853 2.37439 50.9615 2.37439 51.7657 3.05655C57.1853 7.70919 64.1084 10.2804 71.2587 10.2804H73.7238C74.4406 15.4403 77.4301 37.1468 77.4301 43.8284C77.3776 47.5715 68.4266 55.2326 54.5455 63.331Z" fill="white"/>
<path d="M46.4336 21.8948H59.3357V24.4834H46.4336V21.8948Z" fill="white"/>
<path d="M46.4336 27.054H59.3357V29.6428H46.4336V27.054Z" fill="white"/>
<path d="M46.4336 32.2141H49.021V34.8027H46.4336V32.2141Z" fill="white"/>
<path d="M51.5903 32.2141H59.3351V34.8027H51.5903V32.2141Z" fill="white"/>
<path d="M46.4336 37.3914H59.3357V39.9799H46.4336V37.3914Z" fill="white"/>
<path d="M46.4336 42.5513H59.3357V45.1401H46.4336V42.5513Z" fill="white"/>
</svg>
