<svg width="50" height="50" viewBox="0 0 50 50" fill="none" xmlns="http://www.w3.org/2000/svg">
<path fill-rule="evenodd" clip-rule="evenodd" d="M23.6302 0.0485367C18.4365 0.643239 14.3506 4.04098 13.0722 8.82841C12.7863 9.89877 12.7183 11.9516 12.9291 13.1433C13.5706 16.7682 16.0405 19.8852 19.5859 21.5438C21.1064 22.2551 22.7035 22.6129 24.6182 22.6712C26.2826 22.7218 27.3828 22.5805 28.8324 22.1299C33.1243 20.7957 36.1794 17.529 37.0533 13.3398C37.27 12.3002 37.2662 10.4322 37.0451 9.34524C36.4259 6.30109 34.5586 3.63484 31.8623 1.94462C30.4944 1.0872 28.7527 0.423068 27.2209 0.174903C26.1932 0.00839623 24.5009 -0.0511259 23.6302 0.0485367ZM24.4791 2.62641V4.26305H22.5782C21.2846 4.26305 20.6774 4.2335 20.6774 4.17045C20.6774 4.11954 20.8697 3.80169 21.1049 3.46403C21.5877 2.77061 22.5025 1.84918 22.9806 1.57466C23.2935 1.39506 24.2721 0.995892 24.4095 0.991843C24.4478 0.990723 24.4791 1.72626 24.4791 2.62641ZM26.6998 1.3985C27.5346 1.78708 28.6629 2.93393 29.2443 3.98482L29.4001 4.26658L27.4728 4.24324L25.5454 4.21998L25.5199 2.71557C25.5059 1.88812 25.5141 1.16352 25.5383 1.1052C25.5942 0.969963 25.9984 1.07204 26.6998 1.3985ZM21.0055 1.94497C20.6041 2.35783 19.9497 3.27883 19.6477 3.85647L19.435 4.26305H18.2018C17.5234 4.26305 16.9684 4.2279 16.9684 4.18492C16.9684 4.07027 17.8446 3.35601 18.5911 2.86192C19.2336 2.43673 20.9769 1.59636 21.2213 1.59395C21.2925 1.59326 21.198 1.74702 21.0055 1.94497ZM29.9034 2.02611C30.7946 2.41839 32.0501 3.23309 32.6816 3.82891L33.1418 4.26305L31.8471 4.26253L30.5525 4.26202L30.2379 3.66878C30.0648 3.34257 29.7102 2.81351 29.4497 2.49316C28.6206 1.47327 28.673 1.56044 28.9334 1.63461C29.0589 1.67036 29.4954 1.84651 29.9034 2.02611ZM19.0084 5.23857C19.0084 5.25399 18.9051 5.54876 18.7788 5.89374C18.6525 6.23864 18.4625 6.91406 18.3566 7.39471C18.2508 7.87528 18.1447 8.35568 18.1209 8.46232C18.0777 8.65587 18.0746 8.65613 16.1413 8.65613H14.2049L14.3259 8.28263C14.5558 7.5731 15.0267 6.61645 15.4915 5.91476L15.958 5.21058H17.4832C18.322 5.21058 19.0084 5.22315 19.0084 5.23857ZM24.4791 6.93335V8.65613H21.8308H19.1824L19.246 8.24697C19.3366 7.66355 19.7025 6.3402 19.9419 5.73042L20.1459 5.21058H22.3125H24.4791V6.93335ZM30.0675 5.72741C30.3451 6.47337 30.6723 7.66441 30.7419 8.18245L30.8056 8.65613H28.1523H25.499V6.99081C25.499 6.07481 25.5276 5.29887 25.5626 5.26648C25.5974 5.23401 26.5857 5.2179 27.7586 5.23056L29.8913 5.25365L30.0675 5.72741ZM34.3143 5.6069C34.8101 6.27637 35.7914 8.27376 35.7914 8.6134C35.7914 8.63692 34.9224 8.65613 33.8603 8.65613H31.9292L31.7304 7.7198C31.6209 7.20478 31.4265 6.47802 31.2982 6.1047C31.1698 5.73137 31.0643 5.37751 31.0637 5.31825C31.0627 5.23659 31.4194 5.21058 32.5416 5.21058H34.0207L34.3143 5.6069ZM17.942 11.3264V13.0492H15.9734H14.0048L13.935 12.8123C13.8419 12.4969 13.8426 10.3352 13.9359 9.92667L14.0097 9.60365H15.9758H17.942V11.3264ZM24.4791 11.3264V13.0492H21.7437H19.0084V11.3839C19.0084 10.4679 19.0362 9.69264 19.0702 9.66111C19.1042 9.6295 20.3351 9.60365 21.8056 9.60365H24.4791V11.3264ZM30.9109 9.67093C31.0124 9.82357 31.0816 11.4492 31.0193 12.2204L30.9524 13.0492H28.2258H25.499V11.3839C25.499 10.4679 25.5269 9.69264 25.5609 9.66111C25.6484 9.57971 30.8565 9.58936 30.9109 9.67093ZM36.0305 9.70073C36.133 9.85475 36.1934 11.6645 36.1203 12.3894L36.0537 13.0492H34.0449H32.0361L32.0562 11.348C32.0673 10.4123 32.0777 9.63699 32.0794 9.62519C32.081 9.61339 32.9562 9.60365 34.0242 9.60365C35.3647 9.60365 35.9859 9.63372 36.0305 9.70073ZM18.3241 15.1309C18.444 15.6837 18.6426 16.4299 18.7654 16.7891L18.9887 17.4423H17.4731H15.9574L15.6825 17.071C15.3016 16.5567 14.7173 15.4533 14.43 14.7057L14.1894 14.0794L16.1477 14.1027L18.106 14.1259L18.3241 15.1309ZM24.4791 15.7641V17.4454L22.2854 17.4223L20.0918 17.3992L19.8764 16.806C19.676 16.2537 19.1938 14.3991 19.1938 14.1802C19.1938 14.1102 19.9344 14.0829 21.8364 14.0829H24.4791V15.7641ZM30.7843 14.2496C30.7843 14.5447 30.5094 15.6523 30.2109 16.5594L29.9204 17.4423H27.7097H25.499V15.7626V14.0829H28.1417C30.6927 14.0829 30.7843 14.0886 30.7843 14.2496ZM35.7914 14.1208C35.7914 14.1417 35.6819 14.4421 35.5481 14.7883C35.2561 15.544 34.9735 16.0831 34.4621 16.8608L34.0797 17.4423H32.5711C31.7413 17.4423 31.0631 17.4133 31.0639 17.3777C31.0646 17.3421 31.1692 17.003 31.2962 16.624C31.4762 16.0872 31.897 14.3343 31.897 14.1215C31.897 14.1003 32.7732 14.0829 33.8442 14.0829C34.9151 14.0829 35.7914 14.0999 35.7914 14.1208ZM19.8136 19.1005C20.0071 19.444 20.4242 20.0447 20.7405 20.4356C21.0568 20.8265 21.3015 21.1463 21.2844 21.1463C21.2672 21.1463 20.9573 21.0294 20.5959 20.8864C19.4622 20.4383 18.3462 19.7616 17.3393 18.9118L16.8294 18.4815L18.1456 18.4787L19.4619 18.476L19.8136 19.1005ZM24.4791 20.0803V21.6846L24.199 21.6326C23.3813 21.4806 22.3037 20.7568 21.5731 19.8687C21.175 19.3847 20.6774 18.6428 20.6774 18.533C20.6774 18.5016 21.5328 18.476 22.5782 18.476H24.4791V20.0803ZM29.1993 18.799C28.1572 20.4074 26.9404 21.4206 25.8004 21.6294L25.499 21.6846V20.0803V18.476H27.4538H29.4085L29.1993 18.799ZM32.5466 19.0051C31.5676 19.8531 29.9179 20.7863 28.8373 21.1034C28.6259 21.1655 28.6367 21.1394 28.9605 20.8064C29.3882 20.3666 30.1149 19.3447 30.3579 18.8413L30.5343 18.476L31.8415 18.4797L33.1487 18.4836L32.5466 19.0051ZM40.103 21.9694C38.9811 22.4685 37.5207 23.1124 36.8577 23.4002C36.1947 23.6881 35.5551 24.0216 35.4364 24.1412C35.2312 24.3479 35.2216 24.4432 35.3717 24.7811C35.4247 24.9005 35.2436 25.0172 34.3854 25.4163C33.8073 25.6852 33.3016 25.9489 33.2618 26.0022C33.1876 26.1016 33.2203 26.4789 33.3303 26.7919C33.3868 26.9526 33.3261 26.98 32.6213 27.1118C28.6273 27.8585 28.8045 27.808 26.3799 28.8915L24.7109 29.6375L24.1685 29.5244C23.1224 29.3064 18.8549 28.5475 17.4321 28.3264C16.6416 28.2037 15.9837 28.0942 15.9701 28.0832C15.9565 28.0722 16.0726 27.8102 16.2283 27.5011C16.6196 26.7244 16.5592 26.6255 15.3841 26.1168C14.8785 25.8979 14.4664 25.6688 14.4682 25.6076C14.47 25.5464 14.5311 25.3994 14.604 25.2809C14.7849 24.9869 14.7753 24.7318 14.5773 24.5652C14.3134 24.3434 7.95468 21.5554 7.71267 21.5554C7.59241 21.5554 7.43849 21.6087 7.37052 21.6739C7.30255 21.739 6.58088 23.0908 5.76668 24.6779C4.95247 26.2651 3.32192 29.4363 2.14322 31.7252C0.96442 34.0142 0 35.9753 0 36.0834C0 36.1915 0.0730663 36.3398 0.162267 36.413C0.432371 36.6343 6.77013 39.4077 7.00584 39.4077C7.22198 39.4077 7.30997 39.3463 7.54178 39.0339C7.65305 38.8839 7.70942 38.897 8.60031 39.2811C9.73396 39.77 9.92274 39.7594 10.2205 39.1902C10.3313 38.9782 10.445 38.8062 10.4731 38.808C10.5012 38.8097 10.6825 38.9372 10.8761 39.0912L11.2281 39.3712L11.0404 39.7555C10.6724 40.5091 10.8333 41.4691 11.4392 42.1359C11.778 42.5088 12.5496 42.8532 13.0459 42.8532C13.4193 42.8532 13.4449 42.8685 13.4455 43.0901C13.447 43.7841 13.9646 44.6201 14.6106 44.9717C14.9202 45.1403 15.2284 45.2247 15.6609 45.2593L16.273 45.3082L16.33 45.7422C16.4042 46.3064 16.5836 46.6162 17.085 47.0456C17.5357 47.4315 18.0004 47.609 18.5996 47.624C18.9928 47.6339 18.9932 47.6343 19.0559 48.0216C19.1472 48.5847 19.3426 48.9678 19.7315 49.3454C20.2131 49.8132 20.6917 49.9988 21.4192 50C22.2969 50.0015 22.8008 49.7551 23.6154 48.9256L24.2748 48.2543L24.6706 48.4014C25.8446 48.8378 27.2685 48.3898 27.9279 47.3766C28.1434 47.0454 28.2756 46.9214 28.3735 46.9584C29.2441 47.2884 29.7307 47.3231 30.503 47.1099C31.1415 46.9338 31.8823 46.2695 32.1291 45.6518C32.2235 45.4154 32.3078 45.2119 32.3165 45.1994C32.3251 45.1869 32.495 45.2406 32.694 45.3185C33.1428 45.4944 34.1599 45.5136 34.5901 45.3544C35.2064 45.1263 35.7577 44.6816 36.0346 44.1892C36.1813 43.9285 36.3431 43.732 36.3941 43.7528C38.4202 44.5767 40.4319 43.489 40.4384 41.5661C40.4417 40.59 40.0161 39.9292 38.8976 39.1739L38.6194 38.986L38.9583 38.6683L39.297 38.3504L39.4495 38.6243C39.7432 39.152 39.9256 39.149 41.1432 38.5967C41.7416 38.3252 42.2448 38.135 42.2614 38.174C42.4415 38.5975 42.6467 38.8569 42.8558 38.9251C43.0742 38.9964 43.5103 38.827 46.3793 37.5564C48.1801 36.7588 49.7318 36.0388 49.8274 35.9564C49.923 35.874 50.0007 35.7156 50 35.6044C49.9993 35.4932 49.4884 34.4138 48.8648 33.2057C47.5406 30.6403 45.3514 26.3816 43.8169 23.3859C43.2223 22.2251 42.6676 21.2271 42.5839 21.1678C42.5004 21.1086 42.367 21.0605 42.2875 21.0611C42.208 21.0616 41.225 21.4703 40.103 21.9694ZM44.3801 26.9652C45.6709 29.4736 47.1088 32.2625 47.5754 33.1626C48.0419 34.0628 48.4811 34.9233 48.5512 35.0749L48.6786 35.3505L48.007 35.6447C47.6377 35.8065 46.4522 36.3317 45.3726 36.8119C44.293 37.292 43.3751 37.6833 43.3327 37.6812C43.2903 37.6792 42.5476 36.2934 41.6821 34.6017C40.0851 31.4799 39.7474 30.8215 37.7456 26.9269C37.1272 25.7238 36.6382 24.7239 36.6588 24.7048C36.6794 24.6857 37.5879 24.2732 38.6778 23.7882C39.7677 23.3032 40.9306 22.7844 41.2621 22.6353C41.5936 22.4861 41.9027 22.3731 41.9491 22.3842C41.9953 22.3954 43.0894 24.4567 44.3801 26.9652ZM9.74879 23.5426C10.6852 23.9605 11.8791 24.4902 12.4018 24.7197C12.9245 24.9493 13.3522 25.1647 13.3522 25.1985C13.3522 25.2322 12.6385 26.6503 11.7662 28.3498C7.90841 35.8657 7.4179 36.8195 7.06852 37.4864L6.69864 38.1924L4.71695 37.3099C3.62708 36.8245 2.43289 36.2963 2.0631 36.1364C1.69332 35.9763 1.39076 35.8039 1.39067 35.7531C1.39049 35.6742 7.99103 22.7829 8.03164 22.7829C8.03961 22.7829 8.81228 23.1248 9.74879 23.5426ZM36.4764 26.9391C36.7495 27.4721 37.4216 28.7803 37.9703 29.8463C38.5188 30.9122 39.1663 32.172 39.4092 32.6458C39.652 33.1195 40.1521 34.0886 40.5204 34.7993C40.8886 35.5099 41.3085 36.3332 41.4535 36.6289L41.7172 37.1665L41.0114 37.4695C40.6231 37.6362 40.2923 37.7602 40.2761 37.7452C40.26 37.7303 39.5105 36.286 38.6105 34.5358C37.7107 32.7857 36.434 30.3071 35.7738 29.028C35.1136 27.7488 34.5658 26.6689 34.5565 26.6282C34.538 26.5472 35.6728 25.978 35.8625 25.973C35.9271 25.9714 36.2033 26.4061 36.4764 26.9391ZM14.7383 27.0015L15.1107 27.178L14.8909 27.6291C14.7701 27.8774 14.12 29.1464 13.4464 30.4492C12.7728 31.7521 11.5956 34.0391 10.8303 35.5314C10.065 37.0238 9.40182 38.2812 9.35666 38.3257C9.30613 38.3754 9.05967 38.3112 8.71705 38.1591C8.41051 38.023 8.15969 37.9033 8.15969 37.893C8.15969 37.8613 8.84835 36.4945 9.47971 35.273C10.3247 33.6383 12.9152 28.5993 13.4535 27.5432C13.9566 26.5562 13.8731 26.5913 14.7383 27.0015ZM36.3798 32.6717L38.7892 37.3491L38.2887 37.82C38.0133 38.079 37.7349 38.2719 37.6699 38.2488C37.4968 38.1871 33.0004 34.8938 31.4334 33.6812C29.3458 32.0656 29.2205 31.9781 28.9988 31.9799C28.8844 31.9809 26.7879 32.8816 24.34 33.9816C21.8921 35.0815 19.7259 36.0359 19.5261 36.1023C18.8468 36.3281 18.0322 36.0316 17.7074 35.44C17.4849 35.035 17.4769 34.7469 17.677 34.3552C17.8917 33.9348 18.1726 33.7693 20.2138 32.8608C21.2082 32.4182 23.2111 31.5168 24.6645 30.8576C29.1388 28.8284 28.8695 28.9255 31.4334 28.4173C32.6828 28.1696 33.7647 27.9731 33.8377 27.9807C33.916 27.9887 34.9561 29.9081 36.3798 32.6717ZM17.7102 29.4558C20.114 29.8509 22.9287 30.3585 22.98 30.4062C23.0027 30.4272 22.9215 30.4806 22.7998 30.5247C22.6779 30.5689 21.428 31.1262 20.0222 31.7632C17.3518 32.9732 16.9863 33.1999 16.6425 33.8601C16.5462 34.0449 16.4507 34.4512 16.4302 34.7626C16.3669 35.727 16.8861 36.5232 17.8957 37.01C18.2312 37.1717 18.4583 37.2111 19.0547 37.2111H19.7965L23.0419 35.7561C24.8268 34.9558 26.8629 34.0341 27.5665 33.7077C28.2897 33.3723 28.8942 33.1417 28.9574 33.1773C29.0187 33.2119 29.7782 33.7889 30.6452 34.4596C31.5122 35.1303 33.7236 36.7706 35.5596 38.1048C39.0826 40.6651 39.3149 40.8773 39.3149 41.5344C39.3149 42.4566 38.3211 43.1779 37.3762 42.9415C37.1769 42.8916 36.8119 42.6951 36.5649 42.5047C36.0231 42.0869 35.7703 42.0146 35.4769 42.1931C35.2874 42.3085 35.2514 42.4107 35.2203 42.9228C35.1903 43.4149 35.138 43.5743 34.9191 43.8409C34.6111 44.2161 34.1904 44.4037 33.6571 44.4037C33.2222 44.4037 32.9766 44.2979 32.2743 43.8076C31.7189 43.4199 31.4506 43.3728 31.2094 43.6204C31.0748 43.7585 31.0599 43.8818 31.1147 44.3992C31.1673 44.8953 31.1483 45.0788 31.0163 45.351C30.6285 46.1498 29.5322 46.4185 28.7435 45.9081C27.7261 45.2496 27.7312 45.251 27.3957 45.5627C27.2281 45.7183 27.1681 45.8672 27.1681 46.1269C27.1681 47.0088 26.2742 47.6428 25.2762 47.4689L24.9503 47.4121L25.005 46.8684C25.0707 46.2137 24.8892 45.6254 24.4785 45.1625C24.1761 44.8216 23.3693 44.4037 23.0138 44.4037C22.8363 44.4037 22.8045 44.3726 22.8594 44.253C22.8974 44.1701 22.9485 43.8818 22.9728 43.6124C23.0584 42.6635 22.5955 41.906 21.6653 41.473C21.193 41.2531 21.0003 41.2108 20.5469 41.2275L19.9992 41.2477L19.8938 40.8618C19.5898 39.75 18.4956 39.0503 17.2698 39.1839C16.8244 39.2324 16.783 39.2221 16.783 39.063C16.783 38.7573 16.4058 38.1303 16.0343 37.8186C15.5395 37.4033 15.1052 37.2542 14.3902 37.2542C13.619 37.2542 13.1888 37.4413 12.5259 38.0649L12.025 38.536L11.6455 38.2848C11.4367 38.1466 11.1922 37.9794 11.102 37.9133C10.9495 37.8012 11.0934 37.4907 13.1812 33.4284C15.3727 29.1645 15.4299 29.065 15.6633 29.1112C15.7947 29.1374 16.7158 29.2924 17.7102 29.4558ZM15.0155 38.4453C15.3797 38.6267 15.6703 39.0729 15.6703 39.4507C15.6703 39.8363 15.4314 40.1778 14.5925 40.9912C13.8019 41.7576 13.4778 41.9108 12.9209 41.7809C12.6026 41.7067 12.0828 41.2238 12.003 40.9282C11.874 40.4509 12.035 40.1332 12.8037 39.3483C13.8536 38.2762 14.3058 38.0917 15.0155 38.4453ZM18.2479 40.4114C18.7837 40.7269 18.9742 41.4589 18.6492 41.9539C18.554 42.099 18.0222 42.6552 17.4673 43.1901C16.5191 44.1041 16.4329 44.1652 16.0334 44.2066C15.2532 44.2874 14.6475 43.8009 14.6536 43.0984C14.6555 42.8925 14.7076 42.6395 14.7695 42.5361C14.8314 42.4329 15.3335 41.9004 15.885 41.3528C16.9258 40.3195 17.2061 40.153 17.7566 40.2413C17.9096 40.2659 18.1306 40.3425 18.2479 40.4114ZM21.082 42.369C21.6838 42.6026 21.9869 43.2036 21.7869 43.7665C21.6683 44.1003 19.7469 46.1469 19.3089 46.406C18.7622 46.7293 17.8764 46.5026 17.5757 45.9623C17.3662 45.5862 17.3928 45.0776 17.6372 44.7814C17.9699 44.3782 19.5658 42.7403 19.8273 42.5337C20.1925 42.2452 20.6188 42.1892 21.082 42.369ZM23.122 45.5562C23.503 45.7041 23.807 46.0544 23.8837 46.4339C23.9728 46.8753 23.6644 47.3625 22.7773 48.1817C22.0798 48.8258 21.9541 48.9064 21.5847 48.9451C20.8298 49.024 20.2149 48.5202 20.2142 47.8221C20.2137 47.3867 20.3047 47.2454 21.1332 46.3966C22.0505 45.4568 22.4409 45.2918 23.122 45.5562Z" fill="white"/>
<path fill-rule="evenodd" clip-rule="evenodd" d="M36.3167 26.966C36.5898 27.4991 37.262 28.8073 37.8106 29.8732C38.3592 30.9392 39.0066 32.199 39.2495 32.6727C39.4923 33.1465 39.9924 34.1156 40.3607 34.8262C40.7289 35.5369 41.1488 36.3602 41.2939 36.6559L41.5575 37.1935L40.8517 37.4964C40.4634 37.6631 40.1326 37.7872 40.1165 37.7722C40.1003 37.7573 39.3508 36.313 38.4509 34.5628C37.551 32.8126 36.2743 30.3341 35.6141 29.0549C34.9539 27.7758 34.4061 26.6958 34.3968 26.6552C34.3783 26.5741 35.5131 26.0049 35.7028 26C35.7674 25.9984 36.0437 26.4331 36.3167 26.966ZM14.5786 27.0284L14.951 27.2049L14.7312 27.6561C14.6104 27.9044 13.9603 29.1734 13.2867 30.4762C12.6131 31.7791 11.4359 34.066 10.6706 35.5584C9.90529 37.0508 9.24213 38.3082 9.19697 38.3527C9.14644 38.4024 8.89998 38.3382 8.55736 38.1861C8.25082 38.05 8 37.9302 8 37.92C8 37.8883 8.68866 36.5215 9.32001 35.3C10.165 33.6652 12.7555 28.6263 13.2938 27.5701C13.7969 26.5832 13.7135 26.6183 14.5786 27.0284Z" fill="#EB0029"/>
</svg>
