<svg width="60" height="60" viewBox="0 0 60 60" fill="none" xmlns="http://www.w3.org/2000/svg">
<g clip-path="url(#clip0)">
<path d="M57.9757 34.0721C57.0595 36.2432 55.7747 37.0698 55.446 36.9404C55.1174 36.8009 54.8186 35.2971 55.7349 33.1359C56.1332 32.1897 57.2686 30.6361 58.892 28.7736C58.7028 31.2336 58.3741 33.1259 57.9757 34.0721ZM56.7706 48.9116C54.5099 48.8717 52.767 48.6825 51.8706 48.3638C49.7791 47.6368 48.9525 46.4815 49.0521 46.2126C49.1417 45.9437 50.5062 45.5553 52.5977 46.2823C53.484 46.601 54.968 47.5372 56.7706 48.9116ZM44.8194 53.214C43.8832 52.8854 43.0267 52.3974 42.4888 51.8795C42.0506 51.4612 41.961 51.1524 41.9909 51.0728C42.0208 50.9931 42.2797 50.8138 42.8872 50.7441C43.7537 50.6744 44.6002 50.8238 45.5364 51.1425C46.4228 51.4512 47.9167 52.3874 49.7094 53.7618C47.4486 53.722 45.7057 53.5228 44.8194 53.214ZM42.8374 45.376C42.4689 44.5095 42.1502 42.7766 41.951 40.5257C43.445 42.2188 44.4807 43.643 44.8492 44.5095C45.7157 46.5412 45.4269 47.9256 45.1679 48.0451C44.9189 48.1547 43.7039 47.4177 42.8374 45.376ZM50.1676 34.7792C50.9344 36.9005 51.3826 38.6036 51.4125 39.5398C51.4822 41.7508 50.7054 42.9359 50.4165 42.9459C50.1277 42.9459 49.2911 41.8105 49.2214 39.6095C49.1915 38.6733 49.5302 36.9503 50.1676 34.7792ZM24.0141 46.5612C23.9942 46.5014 24.0241 46.4815 24.044 46.4715L26.4243 44.6689C27.6593 43.7327 28.3963 42.2487 28.3963 40.6951V37.6076C29.0038 37.7072 29.6312 37.757 30.2587 37.757C30.2786 37.757 30.2985 37.757 30.3184 37.757C30.8861 37.757 31.4538 37.7172 32.0115 37.6375V40.6851C32.0115 42.2388 32.7485 43.7227 33.9835 44.6589L36.3638 46.4616C36.3837 46.4815 36.4136 46.5014 36.3937 46.5512C36.3738 46.611 36.3439 46.611 36.314 46.611H24.0938C24.0639 46.6209 24.0341 46.6209 24.0141 46.5612ZM18.2875 51.8795C17.7497 52.3974 16.9031 52.8854 15.957 53.214C15.0706 53.5228 13.3177 53.712 11.0569 53.7618C12.8496 52.3874 14.3435 51.4512 15.2299 51.1425C16.1761 50.8238 17.0226 50.6744 17.8791 50.7441C18.4867 50.8039 18.7456 50.9931 18.7755 51.0728C18.8054 51.1524 18.7257 51.4512 18.2875 51.8795ZM8.9057 48.3638C8.01932 48.6726 6.26646 48.8618 4.00567 48.9116C5.79837 47.5372 7.29228 46.601 8.17867 46.2922C9.07501 45.9835 9.83193 45.874 10.4195 45.874C11.2063 45.874 11.6744 46.0632 11.7242 46.2225C11.8238 46.4815 10.9972 47.6368 8.9057 48.3638ZM2.80058 34.0721C2.40221 33.1259 2.07355 31.2336 1.87436 28.7637C3.5077 30.6261 4.63312 32.1798 5.03149 33.1259C5.94776 35.2971 5.64898 36.8009 5.32032 36.9304C5.01157 37.0798 3.71685 36.2432 2.80058 34.0721ZM9.36384 39.5497C9.39371 38.6036 9.84189 36.9105 10.6088 34.7891C11.2462 36.9603 11.5848 38.6833 11.5549 39.6194C11.4852 41.8205 10.6386 42.9558 10.3598 42.9558C10.0809 42.9459 9.29412 41.7607 9.36384 39.5497ZM15.9171 44.5195C16.2856 43.653 17.3214 42.2388 18.8153 40.5357C18.6161 42.7865 18.3074 44.5195 17.9289 45.3859C17.0625 47.4177 15.8474 48.1646 15.5885 48.0551C15.3395 47.9356 15.0507 46.5512 15.9171 44.5195ZM18.0285 30.1381C16.0765 30.1381 14.1444 29.4907 12.5807 28.3056L5.888 23.2262C3.07945 21.0949 1.98391 17.4398 3.15912 14.1233C4.28454 10.9563 7.30224 8.79506 10.6685 8.75522C11.5947 8.74526 12.4811 8.74526 13.3376 8.75522V11.0061C12.4911 10.9961 11.6047 10.9961 10.6984 11.0061C8.2683 11.0359 6.09715 12.5896 5.29044 14.8703C4.44389 17.2606 5.23068 19.8998 7.25244 21.4336L13.9452 26.5129C14.9511 27.2698 16.1761 27.7478 17.431 27.8574L18.8352 30.1381H18.0285ZM16.2259 25.7759C15.7877 25.6065 15.3793 25.3775 15.0108 25.0986L8.3181 20.0193C6.91382 18.9537 6.36605 17.1211 6.95366 15.4579C7.51139 13.8744 9.02522 12.7888 10.7084 12.7689C11.6147 12.7589 12.4911 12.7589 13.3277 12.7689V13.8843C13.3376 18.0374 14.3336 22.1108 16.2259 25.7759ZM43.2557 27.8673C44.5504 27.7677 45.7954 27.2996 46.8312 26.5129L49.5202 24.4712C49.9086 24.1724 49.9883 23.6147 49.6895 23.2262C49.3907 22.8378 48.833 22.7582 48.4446 23.0569L45.7555 25.0986C45.3572 25.3974 44.9189 25.6364 44.4608 25.8057C46.4129 22.1008 47.4387 17.9776 47.4387 13.7548V12.7689C48.2753 12.7589 49.1517 12.7589 50.058 12.7689C51.7411 12.7888 53.255 13.8644 53.8127 15.4579C54.4003 17.1211 53.8525 18.9537 52.4483 20.0193L51.4922 20.7464C51.1037 21.0451 51.0241 21.6029 51.3228 21.9913C51.5021 22.2204 51.7611 22.3399 52.03 22.3399C52.2192 22.3399 52.4084 22.2801 52.5678 22.1606L53.5239 21.4336C55.5456 19.8998 56.3324 17.2606 55.4859 14.8703C54.6792 12.5796 52.508 11.026 50.0779 10.9961C49.1716 10.9861 48.2852 10.9861 47.4387 10.9961V8.74526C48.2952 8.7353 49.1816 8.7353 50.1078 8.74526C53.4741 8.7851 56.4818 10.9463 57.6072 14.1134C58.7824 17.4299 57.6869 21.0949 54.8784 23.2163L48.1856 28.2956C46.632 29.4808 44.6899 30.1281 42.7378 30.1281H41.8116L43.2557 27.8673ZM59.9676 26.234C59.4497 26.0149 58.882 26.1444 58.5036 26.5527C56.8902 28.3155 54.8086 30.7655 54.1015 32.4387C53.1753 34.6298 53.1155 36.6416 53.8426 37.777C53.6235 38.1753 53.3944 38.5737 53.1454 38.9721C52.9462 37.2292 52.0598 34.6895 51.3129 32.7873C51.1137 32.2794 50.6257 31.9607 50.0779 31.9806C49.5302 32.0005 49.072 32.3491 48.9027 32.867C48.2056 35.0182 47.3889 37.9463 47.4486 39.6792C47.5084 41.7209 48.1259 43.3642 49.0521 44.1709C49.0123 44.2107 48.9724 44.2506 48.9326 44.2904C48.1657 44.5294 47.608 44.9876 47.3889 45.6349C47.3789 45.6648 47.369 45.6947 47.359 45.7246C47.2893 45.7843 47.2096 45.8441 47.1399 45.9138C47.0303 45.2565 46.8212 44.5494 46.5025 43.8124C45.8252 42.2188 43.8433 39.9182 42.3096 38.255C41.9411 37.8566 41.3734 37.7371 40.8655 37.9463C40.3575 38.1654 40.0588 38.6534 40.0886 39.2011C40.2281 41.4619 40.5368 44.4796 41.214 46.0731C41.6921 47.1886 42.2996 48.0949 42.9569 48.7423C42.7976 48.8319 42.6382 48.9215 42.4789 49.0012C41.9112 49.0809 41.4929 49.2502 41.1842 49.4494V48.5132C41.1842 47.4675 40.3277 46.611 39.2819 46.611H38.1864C38.2163 46.0134 37.9573 45.4258 37.4494 45.0473L35.0691 43.2447C34.2723 42.6371 33.7943 41.681 33.7943 40.6851V37.2491C36.573 36.4225 38.9931 34.6198 40.5966 32.0802L40.7061 31.9009H42.7478C45.0883 31.9009 47.3988 31.1241 49.2712 29.7098L55.9639 24.6305C59.39 22.0311 60.7245 17.5693 59.2904 13.5158C57.9259 9.64161 54.241 7.01233 50.1377 6.96253C49.2115 6.95257 48.3051 6.95257 47.4486 6.95257V3.05844C47.4486 1.99278 46.5822 1.12631 45.5165 1.12631H23.9743C23.4863 1.12631 23.0879 1.52469 23.0879 2.0127C23.0879 2.50071 23.4863 2.89909 23.9743 2.89909H45.5065C45.5962 2.89909 45.6659 2.9688 45.6659 3.05844V13.7548C45.6659 18.3063 44.3811 22.7482 41.951 26.6025L39.0927 31.134C37.1805 34.1816 33.9038 35.9843 30.3184 35.9843C30.2985 35.9843 30.2886 35.9843 30.2686 35.9843C26.6633 35.9643 23.3867 34.1318 21.4944 31.0643L18.7058 26.5427C16.3553 22.7382 15.1104 18.3561 15.1104 13.8843V3.05844C15.1104 2.9688 15.1801 2.89909 15.2698 2.89909H19.8113C20.2993 2.89909 20.6977 2.50071 20.6977 2.0127C20.6977 1.52469 20.3092 1.12631 19.8113 1.12631H15.2698C14.2041 1.12631 13.3376 1.99278 13.3376 3.05844V6.97249C12.4811 6.96253 11.5748 6.96253 10.6486 6.98245C6.54532 7.03224 2.86034 9.66153 1.4959 13.5357C0.061745 17.5892 1.39631 22.051 4.82234 24.6504L11.5151 29.7297C13.3775 31.144 15.698 31.9208 18.0385 31.9208H19.9407L19.9905 32.0005C21.5442 34.5202 23.9046 36.3229 26.6235 37.1893V40.6951C26.6235 41.691 26.1455 42.6471 25.3487 43.2546L22.9684 45.0573C22.4605 45.4357 22.2015 46.0233 22.2314 46.6209H21.5044C20.4586 46.6209 19.6021 47.4774 19.6021 48.5232V49.4593C19.2834 49.2602 18.8651 49.1008 18.3074 49.0112C18.148 48.9315 17.9887 48.8419 17.8293 48.7522C18.4867 48.1049 19.0942 47.1986 19.5722 46.0831C20.2495 44.4896 20.5582 41.4719 20.6977 39.2111C20.7275 38.6633 20.4287 38.1753 19.9208 37.9562C19.4129 37.7371 18.8552 37.8566 18.4767 38.265C16.943 39.9182 14.961 42.2288 14.2838 43.8223C13.975 44.5494 13.7659 45.2565 13.6464 45.9238C13.5667 45.864 13.497 45.8042 13.4273 45.7345C13.4173 45.7046 13.4074 45.6748 13.3974 45.6449C13.1683 44.9975 12.6206 44.5394 11.8537 44.3004C11.8139 44.2605 11.774 44.2207 11.7342 44.1809C12.6504 43.3642 13.2679 41.7308 13.3376 39.6892C13.3874 37.9562 12.5708 35.0282 11.8836 32.8769C11.7143 32.359 11.2561 32.0105 10.7084 31.9905C10.1606 31.9706 9.68254 32.2893 9.47339 32.7972C8.71647 34.6995 7.83009 37.2292 7.6309 38.9721C7.39187 38.5837 7.16281 38.1853 6.93374 37.777C7.66078 36.6416 7.59106 34.6298 6.66484 32.4387C5.95772 30.7556 3.8762 28.3055 2.26278 26.5527C1.88432 26.1444 1.30667 26.0149 0.798742 26.234C0.280852 26.4531 -0.0278897 26.9511 0.0019885 27.5088C0.14142 29.8991 0.450162 33.0861 1.15728 34.7692C2.1831 37.2093 3.80648 38.7331 5.2506 38.7331C5.31036 38.7331 5.36015 38.7331 5.41991 38.7231C6.15691 40.0477 6.9935 41.3225 7.90976 42.5276C7.93964 42.5674 7.97948 42.6073 8.01932 42.6471C8.2683 43.3243 8.61688 43.8721 9.04514 44.2306C8.57704 44.3203 8.07907 44.4498 7.5811 44.6191C5.94776 45.1868 3.5077 46.9994 1.74489 48.4236C1.31663 48.7721 1.15728 49.3199 1.33655 49.8378C1.56562 50.5648 2.32253 50.764 3.00973 50.6943C5.2008 50.6943 7.93964 50.5748 9.46343 50.0469C11.0968 49.4793 12.3417 48.6128 12.9791 47.6766C13.2082 47.8658 13.4472 48.0451 13.6862 48.2144C13.8456 48.7721 14.1344 49.2104 14.5427 49.4992C12.9094 50.0967 10.5191 51.8695 8.78619 53.2738C8.35794 53.6224 8.19858 54.1701 8.37785 54.688C8.60692 55.4151 9.36384 55.6143 10.051 55.5445C12.2421 55.5445 14.9809 55.425 16.5047 54.8972C17.6999 54.4789 18.7556 53.8614 19.4826 53.1543C19.5125 53.1244 19.5424 53.0945 19.5623 53.0647V56.9189C19.5623 57.9647 20.4188 58.8212 21.4645 58.8212H32.7983C33.2863 58.8212 33.6847 58.4228 33.6847 57.9348C33.6847 57.4468 33.2863 57.0484 32.7983 57.0484H21.5044C21.4346 57.0484 21.3749 56.9887 21.3749 56.9189V48.5232C21.3749 48.4534 21.4346 48.3937 21.5044 48.3937H39.262C39.3317 48.3937 39.3915 48.4534 39.3915 48.5232V56.9189C39.3915 56.9887 39.3317 57.0484 39.262 57.0484H37.1207C36.6327 57.0484 36.2343 57.4468 36.2343 57.9348C36.2343 58.4228 36.6327 58.8212 37.1207 58.8212H39.262C40.3077 58.8212 41.1642 57.9647 41.1642 56.9189V53.0647C41.1941 53.0945 41.224 53.1244 41.2439 53.1543C41.971 53.8614 43.0267 54.4789 44.2218 54.8972C45.7456 55.425 48.4745 55.5445 50.6755 55.5445C51.3726 55.6143 52.1196 55.4151 52.3487 54.688C52.5279 54.1701 52.3686 53.6124 51.9403 53.2738C50.2074 51.8795 47.8171 50.0967 46.1838 49.4992C46.5921 49.2203 46.881 48.7721 47.0403 48.2144C47.2793 48.0351 47.5084 47.8559 47.7474 47.6766C48.3948 48.6128 49.6297 49.4693 51.2631 50.0469C52.7869 50.5748 55.5158 50.6943 57.7168 50.6943C58.4139 50.764 59.1609 50.5648 59.39 49.8378C59.5692 49.3199 59.4099 48.7622 58.9816 48.4236C57.2188 46.9994 54.7788 45.1967 53.1454 44.6191C52.6375 44.4398 52.1495 44.3103 51.6814 44.2306C52.0897 43.8821 52.4383 43.3542 52.6873 42.6969L52.6972 42.6869C53.6633 41.442 54.5497 40.1174 55.3166 38.7231C55.3763 38.7231 55.4261 38.7331 55.4859 38.7331C56.93 38.7331 58.5534 37.2093 59.5792 34.7692C60.2863 33.0861 60.5951 29.8891 60.7345 27.5088C60.7943 26.9511 60.4855 26.4431 59.9676 26.234Z" fill="white"/>
<path d="M30.1084 11.3646C33.395 11.3646 36.0641 14.0337 36.0641 17.3203C36.0641 20.6069 33.395 23.2761 30.1084 23.2761C26.8218 23.2761 24.1527 20.6069 24.1527 17.3203C24.1527 14.0337 26.8218 11.3646 30.1084 11.3646ZM30.1084 25.0488C34.371 25.0488 37.8369 21.583 37.8369 17.3203C37.8369 13.0577 34.371 9.59183 30.1084 9.59183C25.8458 9.59183 22.3799 13.0577 22.3799 17.3203C22.3799 21.583 25.8458 25.0488 30.1084 25.0488Z" fill="white"/>
<path d="M28.8746 16.8522C29.3128 16.7924 29.6813 16.5136 29.8805 16.1251L30.1992 15.4778L30.5179 16.1251C30.7171 16.5235 31.0856 16.7924 31.5238 16.8522L32.2409 16.9518L31.723 17.4597C31.4043 17.7684 31.2649 18.2067 31.3346 18.6449L31.4541 19.362L30.8167 19.0233C30.6175 18.9237 30.4084 18.8739 30.1992 18.8739C29.9901 18.8739 29.771 18.9237 29.5817 19.0233L28.9443 19.362L29.0639 18.6449C29.1336 18.2166 28.9941 17.7684 28.6754 17.4597L28.1575 16.9518L28.8746 16.8522ZM27.2811 18.5752L27.0421 19.9396C26.9525 20.4475 27.1616 20.9455 27.5699 21.2443C27.9882 21.5431 28.526 21.5829 28.9742 21.3439L30.1992 20.6965L31.4242 21.3439C31.8724 21.5829 32.4102 21.5431 32.8285 21.2443C33.2468 20.9455 33.446 20.4475 33.3564 19.9396L33.1173 18.5752L34.1133 17.6091C34.4818 17.2506 34.6112 16.7327 34.4519 16.2447C34.2925 15.7566 33.8842 15.4081 33.3763 15.3383L32.0019 15.1392L31.3844 13.8942C31.1553 13.4361 30.6972 13.1473 30.1893 13.1473C29.6813 13.1473 29.2232 13.4361 28.9941 13.8942L28.3767 15.1392L27.0023 15.3383C26.4943 15.4081 26.086 15.7566 25.9266 16.2447C25.7673 16.7327 25.8968 17.2506 26.2653 17.6091L27.2811 18.5752Z" fill="#EB0029"/>
</g>
<defs>
<clipPath id="clip0">
<rect width="60" height="60" fill="white"/>
</clipPath>
</defs>
</svg>
