<svg width="374" height="295" viewBox="0 0 374 295" fill="none" xmlns="http://www.w3.org/2000/svg">
<g clip-path="url(#clip0)">
<path d="M256.403 245.259C191.456 245.259 138.806 214.825 138.806 177.282C138.806 139.739 191.456 109.304 256.403 109.304C321.35 109.304 374 139.739 374 177.282C374 214.825 321.35 245.259 256.403 245.259Z" fill="#EFEFEF"/>
<path d="M281.25 202.57C281.25 204.916 279.35 206.818 277.008 206.818C274.666 206.818 272.766 204.916 272.766 202.57C272.766 200.225 274.666 198.323 277.008 198.323C279.35 198.323 281.25 200.225 281.25 202.57Z" fill="#24126A"/>
<path d="M323.076 155.062C323.076 157.407 321.176 159.309 318.834 159.309C316.492 159.309 314.592 157.407 314.592 155.062C314.592 152.717 316.492 150.815 318.834 150.815C321.176 150.815 323.076 152.717 323.076 155.062Z" fill="#24126A"/>
<path d="M332.207 187.538C332.207 189.883 330.307 191.785 327.965 191.785C325.623 191.785 323.723 189.883 323.723 187.538C323.723 185.192 325.623 183.29 327.965 183.29C330.307 183.28 332.207 185.182 332.207 187.538Z" fill="#24126A"/>
<path d="M236.198 183.766C233.855 183.766 231.956 181.864 231.956 179.519C231.956 177.173 233.855 175.271 236.198 175.271C238.54 175.271 240.439 177.173 240.439 179.519C240.439 181.864 238.54 183.766 236.198 183.766Z" fill="#24126A"/>
<path d="M266.701 150.793C266.701 153.138 264.801 155.04 262.459 155.04C260.117 155.04 258.217 153.138 258.217 150.793C258.217 148.448 260.117 146.546 262.459 146.546C264.801 146.535 266.701 148.448 266.701 150.793Z" fill="#24126A"/>
<path d="M283.032 166.539L236.339 175.542C236.134 175.563 235.95 175.596 235.767 175.628L235.81 175.315L233.565 174.742V177.39H233.576C233.576 177.498 233.576 177.595 233.608 177.703C233.889 178.741 235.583 179.454 237.375 179.281L284.068 170.278L283.032 166.539Z" fill="#5A4B77"/>
<path d="M322.137 150.501L320.712 151.701C319.492 151.171 317.614 151.29 316.341 152.025L283.085 166.518L287.737 169.209L320.993 154.716C321.77 154.262 322.148 153.689 322.115 153.138L322.126 153.149V150.501H322.137Z" fill="#5A4B77"/>
<path d="M265.611 147.27C264.79 146.33 262.804 145.962 261.185 146.438C260.991 146.492 260.818 146.557 260.656 146.632C260.581 146.503 260.484 146.373 260.365 146.254C260.073 145.962 259.393 145.552 259.393 145.552V148.188L259.404 148.178C259.415 148.448 259.523 148.729 259.75 148.988L281.207 168.603L287.068 166.874L265.611 147.27Z" fill="#5A4B77"/>
<path d="M331.031 183.042L330.243 183.323L329.79 184.263C329.617 184.187 329.434 184.112 329.229 184.058L287.112 166.917L284.122 170.311L326.239 187.451C327.858 187.927 329.844 187.559 330.664 186.619C330.913 186.338 331.01 186.035 331.01 185.733L331.02 185.744L331.031 183.042Z" fill="#5A4B77"/>
<path d="M281.207 168.657L274.289 198.323L273.77 198.064V200.809L273.781 200.798C273.878 201.673 274.99 202.419 276.544 202.56C278.336 202.722 280.031 202.019 280.311 200.982L287.705 169.263L281.207 168.657Z" fill="#5A4B77"/>
<path d="M330.676 183.971C329.856 184.911 327.87 185.279 326.251 184.803L287.188 168.906L280.334 198.323C280.054 199.361 278.359 200.074 276.567 199.901C274.776 199.739 273.545 198.766 273.826 197.729L280.68 168.312L237.376 176.666C235.584 176.828 233.889 176.125 233.609 175.088C233.328 174.05 234.548 173.078 236.34 172.915L279.644 164.561L259.74 146.362C258.92 145.422 259.557 144.276 261.176 143.801C262.795 143.325 264.781 143.693 265.601 144.633L285.505 162.832L316.331 149.399C317.713 148.599 319.807 148.513 320.994 149.204L321.318 149.388C322.516 150.08 322.365 151.29 320.983 152.09L290.157 165.523L329.219 181.421C330.849 181.885 331.496 183.031 330.676 183.971ZM284.846 164.896L283.421 165.318L283.67 166.237L285.256 166.377L285.98 165.556L284.846 164.896Z" fill="#5A4B77"/>
<path d="M284.641 167.987C282.763 167.987 281.23 166.464 281.23 164.572V125.083H288.041V164.572C288.041 166.464 286.519 167.987 284.641 167.987Z" fill="#24126A"/>
<path d="M266.518 78.1792H266.496C266.42 77.2822 265.838 76.4392 264.726 75.8016L264.013 75.3909C261.369 73.8671 256.749 74.0508 253.695 75.8232L232.161 88.2732C230.542 89.2134 229.69 90.4022 229.646 91.537H229.636V95.3087H229.646C229.646 96.2813 230.229 97.2108 231.427 97.9024L232.14 98.3131C234.784 99.8369 239.404 99.6532 242.459 97.8808L263.992 85.4309C265.557 84.5231 266.41 83.3775 266.507 82.2752L266.518 82.2643V78.1792Z" fill="#381E54"/>
<path d="M232.139 94.6492L231.426 94.2385C228.782 92.7147 229.117 90.0345 232.171 88.2729L253.705 75.823C256.759 74.0614 261.379 73.8669 264.023 75.3907L264.736 75.8014C267.38 77.3252 267.045 80.0054 263.991 81.767L242.458 94.2277C239.403 95.9893 234.783 96.1838 232.139 94.6492Z" fill="#5A4B77"/>
<path d="M277.721 112.027L232.625 138.073C230.391 139.37 228.577 137.997 228.577 135.014C228.577 132.032 230.391 128.563 232.625 127.276L284.283 97.4269V99.4694C284.283 104.311 281.347 109.931 277.721 112.027Z" fill="#5A4B77"/>
<path d="M281.046 0.745373C279.481 -0.0975913 277.462 0.010481 275.261 1.28573L273.911 2.06386C268.925 4.94939 264.877 12.6766 264.877 19.3338V108.634L276.858 101.707V104.538L262.492 116.264L229.841 138.181L275.725 164.151L302.115 143.844L317.14 130.994L326.498 26.4882L281.046 0.745373Z" fill="#5A4B77"/>
<path d="M247.433 148.156C247.433 148.156 246.213 144.925 248.62 142.504C251.027 140.094 263.721 134.744 264.638 134.171C265.556 133.599 270.121 130.238 270.121 130.238L271.514 127.125C271.514 127.125 245.76 129.643 245.415 130.043C245.069 130.443 233.358 140.958 233.703 141.423C234.049 141.888 241.777 143.757 241.777 143.757L243.267 145.8L247.433 148.156Z" fill="#2D2D2D"/>
<path d="M320.938 27.1366L319.589 27.9147C314.603 30.8003 310.555 38.5274 310.555 45.1847V134.474L278.293 153.106C276.058 154.403 274.245 157.861 274.245 160.844C274.245 163.826 276.058 165.199 278.293 163.902L323.389 137.857C327.015 135.76 329.951 130.14 329.951 125.299V123.256V33.9668C329.973 27.3095 325.925 24.2511 320.938 27.1366Z" fill="#381E54"/>
<path d="M235.227 167.49C235.227 167.49 228.578 171.759 226.333 174.277C224.088 176.795 219.63 181.939 221.465 184.393C223.3 186.846 229.485 188.218 236.123 182.091C242.772 175.963 240.883 175.596 246.539 172.559C252.195 169.522 253.76 166.215 253.08 164.324C252.4 162.432 249.604 159.093 248.072 159.806C246.561 160.541 235.227 167.49 235.227 167.49Z" fill="#381E54"/>
<path d="M267.543 185.419C267.543 185.419 265.157 190.672 263.927 192.422C262.696 194.162 256.738 204.224 259.847 206.537C262.955 208.849 268.86 208.212 273.522 203.132C278.185 198.064 279.221 191.893 280.376 189.861C281.531 187.829 284.392 182.426 283.032 179.303C281.672 176.179 281.369 175.65 281.369 175.65L267.543 185.419Z" fill="#381E54"/>
<path d="M243.419 110.579C243.419 110.579 223.677 130.086 220.439 139.878C220.439 139.878 219.068 145.173 222.889 149.323C226.71 153.473 234.805 167.036 234.805 167.036C234.805 167.036 240.85 174.364 248.664 168.506C248.664 168.506 252.194 162.854 250.024 159.104C247.855 155.354 242.08 143.347 242.08 143.347C242.08 143.347 254.741 134.625 260.991 132.421C267.24 130.216 270.575 128.519 270.575 128.519C270.575 128.519 269.442 134.42 264.866 140.18C260.3 145.94 252.636 155.191 255.184 161.633C257.731 168.074 259.21 170.062 261.606 173.769C264.002 177.476 266.269 185.203 268.309 186.014C270.349 186.813 279.793 187.743 281.326 181.594C282.859 175.433 278.109 163.47 275.962 159.428C275.962 159.428 301.499 129.935 303.928 126.693C306.356 123.451 251.32 105.575 243.419 110.579Z" fill="#381E54"/>
<path d="M250.025 159.104C247.855 155.343 242.081 143.347 242.081 143.347C242.081 143.347 254.742 134.625 260.991 132.421C267.241 130.216 270.576 128.519 270.576 128.519C271.774 126.866 275.649 120.522 277.387 115.496C262.988 111.271 247.359 108.094 243.419 110.579C244.811 114.038 252.151 114.005 252.151 114.005C252.151 114.005 254.893 120.684 256.706 121.538C258.519 122.391 262.88 121.462 262.88 121.462C262.88 121.462 262.178 122.564 259.07 124.802C255.972 127.039 236.533 142.979 236.533 142.979C236.533 142.979 237.645 143.606 242.815 152.976C247.985 162.335 248.654 168.506 248.654 168.506C248.654 168.506 252.194 162.865 250.025 159.104Z" fill="#1F1033"/>
<path d="M293.675 120.933C282.255 119.841 268.969 119.744 271.958 125.742C277.031 135.922 287.242 136.376 287.242 136.376C287.177 140.115 271.516 158.174 271.516 158.174C271.516 158.174 271.516 158.174 275.164 165.285C278.812 172.397 278.359 185.333 278.359 185.333C279.762 184.566 280.885 183.377 281.327 181.583C282.86 175.423 278.111 163.459 275.963 159.417C275.963 159.417 301.501 129.924 303.929 126.682C304.652 125.731 300.324 123.483 293.675 120.933Z" fill="#1F1033"/>
<path d="M223.451 58.5856L226.484 56.2296C226.484 56.2296 242.858 47.1299 248.298 44.1796C251.245 42.5801 254.31 39.727 256.491 37.4467C258.617 35.2204 261.574 33.9775 264.661 33.9667L293.351 33.8154C293.351 33.8154 296.686 39.1758 297.82 40.2349C298.651 41.013 306.433 47.5406 312.013 52.9226C315.1 55.8946 317.345 59.6339 318.522 63.7623C321.717 75.0342 321.674 97.7618 322.148 114.016C322.148 114.016 320.173 114.783 315.262 115.842C310.383 116.891 310.988 116.221 310.988 116.221C310.988 116.221 303.67 132.702 293.74 134.301C283.809 135.89 270.436 131.243 268.051 115.637C268.051 115.637 248.698 112.73 243.452 110.579C242.966 110.385 242.794 109.779 243.117 109.369C245.46 106.256 254.181 94.2063 255.012 86.3494C255.973 77.2713 255.681 64.0865 254.958 60.4877C254.958 60.4877 240.365 65.9886 235.713 66.972C235.713 66.972 217.947 86.5223 210.52 91.8395C210.52 91.8395 213.057 87.8408 207.952 85.1174L223.451 58.5856Z" fill="#9E90B2"/>
<path opacity="0.6" d="M315.262 115.821C316.007 115.659 316.676 115.507 317.291 115.367L316.255 113.335L289.335 110.482L273.609 111.292L268.201 116.437C268.504 118.112 268.935 119.646 269.486 121.062C269.518 121.062 276.167 122.024 279.265 121.365C282.363 120.706 306.314 124.229 306.368 124.24C309.077 120.338 310.761 116.696 310.966 116.242C310.934 116.383 311.225 116.685 315.262 115.821Z" fill="#020230"/>
<path d="M278.92 106.408C278.887 106.31 278.801 106.235 278.704 106.235C277.409 106.202 268.99 105.954 265.816 104.851C262.362 103.663 258.714 103.879 258.52 104.084C258.336 104.289 252.594 106.721 252.249 107.715C251.946 108.591 251.396 111.649 252.151 112.773C252.918 113.897 253.274 114.654 253.274 114.654L253.868 114.718C253.868 114.718 254.645 116.242 255.077 116.783C255.271 117.02 255.422 117.28 255.551 117.55C255.918 118.339 256.555 119.625 256.814 119.657C257.192 119.7 258.973 120.046 259.426 119.938C259.793 119.841 260.128 118.717 259.977 118.22C259.934 118.079 259.998 117.961 260.139 117.939C260.959 117.809 263.183 117.528 266.248 117.809C269.993 118.155 275.282 115.702 275.757 115.475C275.779 115.464 275.811 115.453 275.833 115.453L281.111 114.978C281.262 114.967 281.359 114.816 281.316 114.675L278.92 106.408Z" fill="#FCD1C5"/>
<path d="M272.562 50.7287C272.562 50.7287 268.071 67.307 272.821 84.3392C272.821 84.3392 290.101 52.0688 291.969 46.8273C293.847 41.5858 294.527 37.8681 292.767 35.9877C291.019 34.1072 275.411 43.8229 275.411 43.8229L272.562 50.7287Z" fill="#F0F6FF"/>
<path d="M277.02 76.7202C277.02 76.7202 280.312 66.637 279.74 63.384C279.168 60.131 278.348 57.7967 278.348 57.7967L281.316 55.0516L282.622 57.7643C282.622 57.7643 289.152 52.9658 289.584 52.0688C289.584 52.0688 284.317 55.6785 282.665 56.2296C282.665 56.2296 281.888 54.9328 280.852 54.4897C279.816 54.0466 277.247 57.5805 277.247 57.5805L276.761 63.6974L274.181 77.9738L275.077 80.092L277.02 76.7202Z" fill="#C4CCD6"/>
<path d="M280.852 54.5005C280.852 54.5005 277.926 49.3347 274.127 50.9234C274.127 50.9234 273.523 57.2888 274.03 57.8724C273.177 58.9855 271.051 62.0548 270.673 65.4375C269.626 74.9046 272.821 84.3393 272.821 84.3393L275.39 79.5193C275.39 79.5193 276.038 73.7158 277.721 67.4692C278.963 62.8545 278.337 59.1909 277.916 57.5806C279.006 56.6944 280.852 54.5005 280.852 54.5005Z" fill="#E60D2E"/>
<path d="M264.499 24.2943C264.499 24.2943 263.711 28.3254 263.992 29.0927C264.272 29.86 265.298 30.368 265.049 31.9458C264.801 33.5129 265.708 38.214 266.172 39.7811C266.172 39.7811 265.826 41.4562 266.301 41.9749C266.766 42.4937 267.381 42.4721 267.813 43.261C268.255 44.0499 268.395 48.1135 270.047 49.4752C271.687 50.8369 273.835 51.1179 274.936 50.8153C276.037 50.5235 277.171 49.6697 277.171 49.6697L279.642 50.7072C279.642 50.7072 292.487 47.0652 292.087 38.0195L292.077 37.0685C292.077 37.0685 292.994 35.7932 293.253 34.9502C293.523 34.1073 295.649 30.3572 294.57 28.7361C294.57 28.7361 299.546 9.06692 284.197 7.87813C268.849 6.68933 266.539 17.4641 264.499 24.2943Z" fill="#FCD1C5"/>
<path d="M292.098 38.0195V37.9114C291.461 37.5332 290.835 37.2846 290.339 37.3711C288.58 37.6845 288.99 34.0316 288.99 34.0316C288.99 34.0316 288.666 34.6909 287.77 39.3596C286.874 44.0175 277.192 49.6697 277.192 49.6697L279.664 50.7072C279.653 50.7072 292.498 47.0651 292.098 38.0195Z" fill="#E2B1A6"/>
<path d="M264.565 15.7566C263.065 18.9447 262.341 22.7813 265.482 25.3534C265.482 25.3534 268.116 26.0775 273.135 23.7431C276.513 22.1653 279.892 22.8677 281.738 23.4837C282.59 23.7755 283.152 24.5861 283.13 25.4831L283.054 28.2822C283.033 29.0062 283.465 29.6763 284.134 29.9573L286.465 30.9515L286.929 33.675C287.07 34.4747 287.89 34.961 288.656 34.6908L289.25 34.4747C289.25 34.4747 289.595 28.4118 294.593 28.7253C294.593 28.7253 298.64 19.9714 294.496 11.9632C290.351 3.95507 278.996 4.52785 276.578 5.43566C273.394 6.63527 273.837 6.45154 272.012 7.5863C268.807 9.57483 266.162 12.3631 264.565 15.7566Z" fill="#AA8383"/>
<path opacity="0.6" d="M305.429 77.4875C305.429 77.4875 303.098 94.6494 302.148 99.5019L294.636 103.468L307.977 102.658L305.429 77.4875Z" fill="#020230"/>
<path d="M294.581 28.7361C294.581 28.7361 295.952 25.7749 296.275 21.7114C290.069 26.6395 283.129 25.4832 283.129 25.4832L283.053 28.2822C283.032 29.0063 283.463 29.6764 284.133 29.9573L286.464 30.9516L286.928 33.675C287.068 34.4748 287.889 34.9611 288.655 34.6909L289.249 34.4748C289.238 34.4856 289.594 28.4227 294.581 28.7361Z" fill="#936D6D"/>
<path opacity="0.6" d="M297.906 43.8121C297.906 43.8121 293.934 57.4833 293.103 60.1203L289.908 59.7852L290.48 64.1081L273.243 86.8573L292.38 64.8646L291.624 61.0064L294.528 61.309L297.906 43.8121Z" fill="#020230"/>
<path d="M280.981 118.144C280.981 118.144 321.403 116.826 322.429 116.091C323.465 115.356 323.649 104.949 323.551 98.9075C323.487 94.671 323.53 78.1144 319.925 66.4966C322.763 76.3312 321.263 111.12 319.979 112.892C318.694 114.664 280.247 115.68 280.247 115.68C280.668 117.128 280.981 118.144 280.981 118.144Z" fill="#263649"/>
<path d="M201.572 85.7767C201.572 85.7767 201.42 86.7926 199.661 87.7976C197.902 88.7919 193.401 91.0182 192.678 91.6558C191.954 92.2935 188.705 95.1466 188.608 95.5248C188.511 95.9031 187.54 99.1344 187.551 99.329C187.561 99.5235 187.864 101.015 187.864 101.015L186.86 105.781C186.86 105.781 185.597 107.629 186.968 108.137C188.349 108.645 189.126 107.207 189.148 106.991C189.148 106.991 191.231 105.997 192.764 104.808C194.297 103.619 200.427 98.6805 201.464 98.9831C202.5 99.2857 201.55 101.058 201.043 101.361C200.546 101.663 197.286 104.851 198.657 107.056C200.017 109.272 200.902 105.802 201.809 105.1C202.705 104.398 204.648 101.631 205.846 101.285C207.033 100.939 209.203 96.4867 209.483 94.4981C209.764 92.5096 211.189 91.2235 211.696 90.5859C212.203 89.9375 210.595 84.9986 210.595 84.9986L204.518 83.1073L202.392 84.4906L201.572 85.7767Z" fill="#FCD1C5"/>
<path d="M316.946 59.6772C315.672 57.6671 315.089 59.1477 313.384 60.812C311.085 63.0491 308.192 66.5182 306.702 70.8952C303.993 78.8709 304.965 98.8102 305.871 101.663C305.871 101.663 280.56 105.813 278.812 105.738C277.063 105.662 280.981 118.144 280.981 118.144C280.981 118.144 321.403 116.826 322.429 116.091C323.465 115.356 323.649 104.949 323.551 98.9075C323.476 93.7308 323.573 70.1495 316.946 59.6772Z" fill="#334659"/>
<path d="M280.981 118.144C280.981 118.144 321.403 116.826 322.429 116.091C323.465 115.356 323.649 104.949 323.551 98.9075C323.487 94.671 323.53 78.1144 319.925 66.4966C322.763 76.3312 321.263 111.12 319.979 112.892C318.694 114.664 280.247 115.68 280.247 115.68C280.668 117.128 280.981 118.144 280.981 118.144Z" fill="#263649"/>
<path d="M328.299 113.703H328.277C328.202 112.806 327.619 111.963 326.507 111.325L325.795 110.914C323.15 109.39 318.531 109.574 315.476 111.347L293.943 123.796C292.324 124.737 291.482 125.926 291.428 127.06H291.417V130.81H291.428C291.428 131.783 292.011 132.712 293.209 133.404L293.921 133.815C296.565 135.339 301.185 135.155 304.24 133.383L325.773 120.933C327.338 120.025 328.191 118.879 328.288 117.777L328.299 117.766V113.703Z" fill="#381E54"/>
<path d="M293.921 130.172L293.209 129.762C290.564 128.238 290.899 125.558 293.953 123.796L315.487 111.346C318.541 109.585 323.161 109.39 325.806 110.914L326.507 111.325C329.152 112.848 328.817 115.529 325.762 117.29L304.229 129.74C301.185 131.502 296.566 131.696 293.921 130.172Z" fill="#5A4B77"/>
<path d="M254.979 236.321C254.115 236.321 253.295 236.116 252.572 235.695C250.877 234.711 249.938 232.755 249.938 230.161V172.029H252.453V230.161C252.453 231.782 252.95 233.004 253.835 233.512C254.709 234.02 256.015 233.836 257.418 233.036L305.763 205.089C309.141 203.143 311.991 198.194 311.991 194.292V136.16H314.506V194.292C314.506 199.145 311.225 204.84 307.026 207.261L258.681 235.208C257.397 235.954 256.145 236.321 254.979 236.321Z" fill="#381E54"/>
<path d="M131.477 167.512C130.613 167.512 129.793 167.306 129.07 166.885C127.375 165.901 126.436 163.945 126.436 161.352V103.22H128.951V161.352C128.951 162.973 129.448 164.194 130.333 164.702C131.207 165.199 132.513 165.037 133.916 164.226L182.261 136.279C185.639 134.334 188.489 129.384 188.489 125.482V67.3503H191.004V125.482C191.004 130.335 187.723 136.03 183.524 138.451L135.179 166.399C133.895 167.134 132.632 167.512 131.477 167.512Z" fill="#381E54"/>
<path d="M128.295 123.994L251.803 194.121L250.562 196.311L127.054 126.185L128.295 123.994Z" fill="#381E54"/>
<path opacity="0.5" d="M251.546 184.836L119.778 108.666L190.541 67.7719L322.299 143.941L251.546 184.836Z" fill="url(#paint0_linear)"/>
<path d="M119.778 102.355V108.666L251.546 184.836L322.299 143.941V137.619L251.546 178.524L119.778 102.355Z" fill="#9E90B2"/>
<path d="M251.546 178.524L119.778 102.355L190.541 61.4496L322.299 137.619L251.546 178.524Z" fill="#F8F8F8"/>
<path opacity="0.4" d="M259.263 119.193C259.263 119.193 264.326 120.997 268.2 120.36C272.065 119.711 290.684 119.355 290.684 119.355L287.759 117.658L281.228 113.108L265.049 114.2L258.81 116.437L259.263 119.193Z" fill="#020230"/>
<path d="M278.92 106.408C278.887 106.31 278.801 106.235 278.704 106.235C277.409 106.202 268.99 105.954 265.816 104.851C262.362 103.663 258.714 103.879 258.52 104.084C258.336 104.29 252.594 106.721 252.249 107.715C251.946 108.591 251.396 111.649 252.151 112.773C252.918 113.897 253.274 114.654 253.274 114.654L253.868 114.718C253.868 114.718 254.645 116.242 255.077 116.783C255.271 117.02 255.422 117.28 255.551 117.55C255.918 118.339 256.555 119.625 256.814 119.657C257.192 119.701 258.973 120.046 259.426 119.938C259.793 119.841 260.128 118.717 259.977 118.22C259.934 118.08 259.998 117.961 260.139 117.939C260.959 117.809 263.183 117.528 266.248 117.809C269.993 118.155 275.282 115.702 275.757 115.475C275.779 115.464 275.811 115.453 275.833 115.453L281.111 114.978C281.262 114.967 281.359 114.816 281.316 114.675L278.92 106.408Z" fill="#FCD1C5"/>
<path d="M316.946 59.6772C315.672 57.6671 315.089 59.1477 313.384 60.812C311.085 63.0491 308.192 66.5182 306.702 70.8952C303.993 78.8709 304.965 98.8102 305.871 101.663C305.871 101.663 280.56 105.813 278.812 105.738C277.063 105.662 280.981 118.144 280.981 118.144C280.981 118.144 321.403 116.826 322.429 116.091C323.465 115.356 323.649 104.949 323.551 98.9075C323.476 93.7308 323.573 70.1495 316.946 59.6772Z" fill="#817199"/>
<path opacity="0.6" d="M280.981 118.144C280.981 118.144 321.403 116.826 322.429 116.091C323.465 115.356 323.649 104.949 323.551 98.9075C323.487 94.671 323.53 78.1144 319.925 66.4966C322.763 76.3312 321.263 111.12 319.979 112.892C318.694 114.664 280.247 115.68 280.247 115.68C280.668 117.128 280.981 118.144 280.981 118.144Z" fill="#020230"/>
<path opacity="0.3" d="M208.534 97.4269C208.534 97.4269 222.987 86.1225 225.048 85.031C227.11 83.9395 227.984 83.1073 227.984 83.1073L223.149 80.3082L214.967 83.6801L204.659 93.9037L188.793 105.165V107.78C188.793 107.78 201.885 102.16 203.342 101.199C204.821 100.226 208.534 97.4269 208.534 97.4269Z" fill="#180D5B"/>
<path opacity="0.63" d="M199.92 107.661C199.92 107.661 202.996 104.906 204.982 103.987C206.969 103.068 210.131 100.626 210.52 98.7562C210.908 96.8865 214.189 92.7582 214.189 92.7582L208.922 95.8058L201.291 100.215L188.598 107.586C188.598 107.586 189.375 108.472 190.983 107.932C192.591 107.38 195.603 105.457 197.006 105.284C198.409 105.111 200.741 104.679 200.741 104.679L199.92 107.661Z" fill="#2D2D2D"/>
<path d="M201.572 85.7767C201.572 85.7767 201.42 86.7926 199.661 87.7976C197.902 88.7919 193.401 91.0182 192.678 91.6558C191.954 92.2935 188.706 95.1466 188.608 95.5248C188.511 95.9031 187.54 99.1344 187.551 99.329C187.561 99.5235 187.864 101.015 187.864 101.015L186.86 105.781C186.86 105.781 185.597 107.629 186.968 108.137C188.349 108.645 189.126 107.207 189.148 106.991C189.148 106.991 191.231 105.997 192.764 104.808C194.297 103.619 200.427 98.6805 201.464 98.9831C202.5 99.2857 201.55 101.058 201.043 101.361C200.546 101.663 197.286 104.851 198.657 107.056C200.017 109.272 200.902 105.802 201.809 105.1C202.705 104.398 204.648 101.631 205.846 101.285C207.033 100.939 209.203 96.4867 209.483 94.4981C209.764 92.5096 211.189 91.2235 211.696 90.5859C212.203 89.9375 210.595 84.9986 210.595 84.9986L204.518 83.1073L202.392 84.4906L201.572 85.7767Z" fill="#FCD1C5"/>
<path d="M256.392 52.3932C256.392 52.3932 256.165 43.3259 257.709 36.3768C257.288 36.701 256.878 37.0577 256.5 37.4467C254.309 39.7271 251.254 42.5802 248.308 44.1797C242.857 47.13 226.494 56.2297 226.494 56.2297L223.461 58.5857C213.865 66.1183 203.136 82.5237 201.571 85.7659C202.327 84.7608 204.248 83.1073 207.95 85.085C213.056 87.7976 210.627 91.8828 210.627 91.8828C218.053 86.5656 235.712 66.9289 235.712 66.9289C240.072 66.0103 253.165 61.1254 254.795 60.5094C255.831 57.7968 256.446 55.0517 256.392 52.3932Z" fill="#817199"/>
<path d="M177.588 118.263L230.509 148.859C231.092 149.194 231.966 149.226 232.463 148.945L264.045 130.692C264.541 130.4 264.487 129.892 263.905 129.557L210.983 98.9616C210.401 98.6265 209.526 98.5941 209.03 98.8751L177.447 117.129C176.94 117.42 177.005 117.928 177.588 118.263Z" fill="#E8E8E8"/>
<path opacity="0.5" d="M158.774 105.889L175.289 113.519L183.762 100.831L162.822 97.0271L158.774 105.889Z" fill="#000028"/>
<path d="M166.707 82.8695H149.243L150.862 101.804C150.862 102.852 151.553 103.911 152.945 104.711C155.719 106.31 160.22 106.31 162.994 104.711C164.386 103.911 165.077 102.852 165.077 101.804L166.707 82.8695Z" fill="#E60D2E"/>
<path d="M166.707 82.8695H149.243L149.513 85.982C149.912 86.5007 150.452 86.9871 151.132 87.441C154.467 89.6565 159.972 90.0887 163.728 88.4893L163.145 102.333C163.124 102.939 162.908 103.522 162.519 103.987C161.958 104.657 160.868 105.435 158.774 105.878C160.317 105.781 161.818 105.392 163.005 104.7C164.397 103.9 165.088 102.841 165.088 101.793L166.394 86.6088L166.707 82.8695Z" fill="#C40C30"/>
<path opacity="0.4" d="M157.975 87.9166C153.152 87.9166 149.243 85.657 149.243 82.8696C149.243 80.0822 153.152 77.8226 157.975 77.8226C162.798 77.8226 166.707 80.0822 166.707 82.8696C166.707 85.657 162.798 87.9166 157.975 87.9166Z" fill="#06033E"/>
<path opacity="0.4" d="M163.296 84.1664C160.36 85.8631 155.6 85.8631 152.664 84.1664C149.728 82.4697 149.728 79.7138 152.664 78.0171C155.6 76.3203 160.36 76.3203 163.296 78.0171C166.232 79.7138 166.232 82.4697 163.296 84.1664Z" fill="#06033E"/>
<path d="M167.226 82.6312V82.6204C167.226 82.6095 167.226 82.5987 167.226 82.5987L167.053 80.902L167.042 80.9236C166.967 79.6376 166.082 78.3731 164.387 77.3896C160.847 75.3363 155.094 75.3363 151.553 77.3896C149.816 78.3947 148.93 79.7024 148.898 81.0209L148.736 82.5339C148.736 82.5771 148.725 82.6095 148.725 82.6528V82.6744C148.628 84.1117 149.535 85.5707 151.424 86.6623C155.04 88.7481 160.901 88.7481 164.516 86.6623C166.438 85.5491 167.334 84.0793 167.226 82.6312Z" fill="#E60D2E"/>
<path d="M163.296 84.1664C160.36 85.8631 155.6 85.8631 152.664 84.1664C149.728 82.4697 149.728 79.7138 152.664 78.0171C155.6 76.3203 160.36 76.3203 163.296 78.0171C166.232 79.7138 166.232 82.4697 163.296 84.1664Z" fill="#AA0F34"/>
<path d="M162.941 84.1664C160.005 85.8631 155.245 85.8631 152.309 84.1664C149.373 82.4697 149.373 79.7138 152.309 78.0171C155.245 76.3203 160.005 76.3203 162.941 78.0171C165.877 79.7138 165.877 82.4697 162.941 84.1664Z" fill="#E60D2E"/>
<path opacity="0.4" d="M153.549 78.6655C156.485 76.9688 161.245 76.9688 164.181 78.6655C164.214 78.6871 164.246 78.7087 164.289 78.7303C164.008 78.4818 163.674 78.2332 163.296 78.0171C160.36 76.3203 155.6 76.3203 152.664 78.0171C149.761 79.6922 149.728 82.394 152.556 84.1015C150.667 82.4156 151.002 80.1461 153.549 78.6655Z" fill="#06033E"/>
<path d="M152.665 78.7736C155.601 77.0769 160.361 77.0769 163.297 78.7736C164.603 79.5301 165.326 80.492 165.466 81.4754C165.65 80.2434 164.927 78.9682 163.297 78.0279C160.361 76.3312 155.601 76.3312 152.665 78.0279C151.035 78.9682 150.312 80.2434 150.495 81.4754C150.636 80.4812 151.359 79.5301 152.665 78.7736Z" fill="#AA0F34"/>
<path d="M164.388 84.8689C160.815 86.8899 155.041 86.8466 151.5 84.75C147.96 82.6642 147.992 79.3248 151.565 77.3038C155.138 75.2829 160.912 75.3261 164.453 77.4227C167.993 79.5085 167.971 82.848 164.388 84.8689ZM163.298 78.0171C160.362 76.3204 155.602 76.3204 152.666 78.0171C149.73 79.7139 149.73 82.4697 152.666 84.1664C153.648 84.7284 154.836 85.1067 156.088 85.2904L156.228 84.8365C156.282 84.6528 156.455 84.5339 156.638 84.5339H159.336C159.531 84.5339 159.693 84.6528 159.747 84.8365L159.887 85.2904C161.139 85.1067 162.326 84.7284 163.309 84.1664C166.234 82.4697 166.234 79.7139 163.298 78.0171Z" fill="#C40C30"/>
<path d="M163.298 77.693C160.362 75.9962 155.602 75.9962 152.666 77.693C151.122 78.5792 150.399 79.7572 150.475 80.9243C150.54 79.8652 151.274 78.8169 152.666 78.0064C155.602 76.3096 160.362 76.3096 163.298 78.0064C164.69 78.8169 165.424 79.8652 165.489 80.9243C165.564 79.768 164.841 78.59 163.298 77.693Z" fill="white"/>
<path d="M164.387 84.5556C160.814 86.5765 155.04 86.5333 151.499 84.4367C149.816 83.4424 148.941 82.1672 148.866 80.8811C148.801 82.2752 149.664 83.6802 151.499 84.7609C155.04 86.8467 160.804 86.9007 164.387 84.8798C166.265 83.8207 167.161 82.3941 167.085 80.9784C167.021 82.286 166.125 83.5721 164.387 84.5556Z" fill="white"/>
<path d="M158.785 85.5282H157.166C157.058 85.5282 156.961 85.4417 156.961 85.3228V85.2904C156.961 85.1823 157.047 85.0851 157.166 85.0851H158.785C158.893 85.0851 158.99 85.1715 158.99 85.2904V85.3228C158.99 85.4417 158.904 85.5282 158.785 85.5282Z" fill="#0C0A78"/>
<path d="M158.785 85.0958H157.166C157.058 85.0958 156.961 85.1823 156.961 85.3012V85.3336C156.961 85.3552 156.972 85.366 156.972 85.3876C156.993 85.3012 157.069 85.2363 157.166 85.2363H158.785C158.882 85.2363 158.958 85.3012 158.979 85.3876C158.979 85.366 158.99 85.3552 158.99 85.3336V85.3012C158.99 85.1823 158.904 85.0958 158.785 85.0958Z" fill="#AA0F34"/>
<path d="M175.213 114.308L178.127 115.832L207.389 98.9183C207.875 98.6374 208.738 98.6698 209.299 98.994L259.76 128.163C260.245 127.893 262.447 126.833 262.447 126.833L261.379 129.622C261.336 129.741 261.238 129.859 261.076 129.957L230.261 147.767C229.775 148.048 228.911 148.016 228.35 147.691L176.713 117.842C176.487 117.712 176.336 117.55 176.282 117.377L175.213 114.308Z" fill="#9E90B2"/>
<path d="M175.656 114.783L228.577 145.379C229.16 145.714 230.035 145.746 230.531 145.465L262.113 127.212C262.61 126.92 262.556 126.412 261.973 126.077L209.052 95.4817C208.469 95.1467 207.595 95.1143 207.098 95.3952L175.516 113.649C175.019 113.94 175.084 114.448 175.656 114.783Z" fill="#F8F8F8"/>
<path d="M194.039 110.633L229.874 131.351L231.568 130.367L195.744 109.65L194.039 110.633Z" fill="#9E90B2"/>
<path opacity="0.4" d="M191.33 112.2L233.522 136.592L235.217 135.609L193.035 111.228L191.33 112.2Z" fill="#9E90B2"/>
<path opacity="0.4" d="M188.621 113.768L230.802 138.16L232.508 137.176L190.315 112.795L188.621 113.768Z" fill="#9E90B2"/>
<path d="M185.91 115.345L228.091 139.727L229.797 138.743L187.605 114.362L185.91 115.345Z" fill="#9E90B2"/>
<path opacity="0.4" d="M240.721 130.843L199.91 107.251L198.205 108.234L238.713 131.643L240.419 132.626L242.113 131.643L240.721 130.843Z" fill="#9E90B2"/>
<path opacity="0.4" d="M227.812 130.162L236.253 135.036L237.947 134.053L229.453 129.146L227.812 130.162Z" fill="#9E90B2"/>
<path d="M175.288 113.519L181.981 73.7807L181.441 73.5538L182.25 73.0891C182.412 72.981 182.628 72.9918 182.876 73.1323L236.337 104.041C236.78 104.29 237.104 104.949 237.028 105.403L230.282 145.454C230.25 145.66 230.142 145.8 230.001 145.865L229.213 146.319L229.073 145.584L229.116 145.595L175.979 114.87C175.547 114.621 175.213 113.973 175.288 113.519Z" fill="#9E90B2"/>
<path d="M236.046 105.132L236.92 104.743C237.017 104.97 237.071 105.208 237.028 105.403L230.282 145.454C230.25 145.66 230.142 145.8 230.001 145.865L229.213 146.319L229.073 145.584L229.116 145.595L226.429 144.039L236.046 105.132Z" fill="#9E90B2"/>
<path d="M175.147 115.356L228.608 146.265C229.019 146.503 229.375 146.362 229.45 145.941L236.196 105.889C236.272 105.435 235.937 104.787 235.506 104.527L182.045 73.6186C181.634 73.3808 181.278 73.5213 181.203 73.9428L174.457 113.994C174.37 114.459 174.705 115.108 175.147 115.356Z" fill="#9E90B2"/>
<path d="M93.6881 233.847C93.4506 233.847 93.2131 233.717 93.0836 233.49C92.8893 233.155 93.0081 232.723 93.3427 232.528L151.736 198.777C153.981 197.48 155.363 195.07 155.363 192.476V157.396C155.363 154.338 156.993 151.474 159.626 149.918L195.904 128.53C196.239 128.336 196.67 128.444 196.865 128.779C197.059 129.114 196.951 129.546 196.616 129.74L160.328 151.139C158.126 152.436 156.755 154.835 156.755 157.407V192.487C156.755 195.578 155.093 198.453 152.427 199.998L94.0335 233.749C93.9255 233.825 93.8068 233.847 93.6881 233.847Z" fill="#E60D2E"/>
<path opacity="0.6" d="M69.8336 293.362L10.7923 259.233C8.63361 257.979 8.90344 255.796 11.3968 254.348L73.9784 218.079C76.4717 216.631 80.2603 216.479 82.419 217.733L141.46 251.862C143.619 253.116 143.349 255.299 140.856 256.747L78.2742 293.016C75.7809 294.454 72.0031 294.616 69.8336 293.362Z" fill="#020230"/>
<path d="M81.577 274.06L108.302 258.606C109.403 257.968 110.072 256.823 110.072 255.547C110.072 254.272 109.414 253.127 108.302 252.489L81.577 237.035C77.1192 234.463 71.5929 234.463 67.1351 237.035L40.41 252.489C39.3091 253.127 38.6398 254.272 38.6398 255.547C38.6398 256.823 39.2983 257.968 40.41 258.617L67.1351 274.071C69.3586 275.357 71.8627 276.006 74.3561 276.006C76.8602 275.995 79.3535 275.346 81.577 274.06ZM41.1116 257.396C40.4424 257.006 40.043 256.315 40.043 255.547C40.043 254.78 40.4424 254.089 41.1116 253.699L67.8367 238.245C71.8519 235.922 76.8494 235.922 80.8754 238.245L107.601 253.699C108.27 254.089 108.669 254.78 108.669 255.547C108.669 256.315 108.27 257.006 107.601 257.396L80.8754 272.85C76.8602 275.173 71.8627 275.173 67.8367 272.85L41.1116 257.396Z" fill="#E60D2E"/>
<path d="M17.851 219.947L17.7863 171.531C17.7863 169.758 19.2218 169.142 20.992 170.169L65.4726 195.739C67.2428 196.766 68.6891 199.024 68.6891 200.807L68.7539 249.224C68.7539 250.996 67.3183 251.612 65.5482 250.586L21.0675 225.016C19.2973 223.989 17.851 221.719 17.851 219.947Z" fill="url(#paint1_linear)"/>
<path d="M17.851 219.947L17.7863 171.531C17.7863 169.758 19.2218 169.142 20.992 170.169L65.4726 195.739C67.2428 196.766 68.6891 199.024 68.6891 200.807L68.7539 249.224C68.7539 250.996 67.3183 251.612 65.5482 250.586L21.0675 225.016C19.2973 223.989 17.851 221.719 17.851 219.947Z" fill="#5A4B77"/>
<path d="M24.3488 222.683C22.5786 221.656 21.1323 219.397 21.1323 217.614L21.0675 170.203L20.992 170.16C19.2218 169.133 17.7863 169.749 17.7863 171.521L17.851 219.938C17.851 221.71 19.2973 223.98 21.0675 224.995L65.5482 250.565C67.3183 251.592 68.7539 250.976 68.7539 249.204V248.199L24.3488 222.683Z" fill="#381E54"/>
<path d="M134.25 219.948L134.314 171.532C134.314 169.76 132.879 169.144 131.109 170.17L86.6281 195.74C84.858 196.767 83.4116 199.026 83.4116 200.809L83.3468 249.225C83.3468 250.998 84.7824 251.614 86.5525 250.587L131.033 225.017C132.803 223.99 134.25 221.721 134.25 219.948Z" fill="#5A4B77"/>
<path opacity="0.4" d="M127.752 222.683C129.522 221.656 130.968 219.397 130.968 217.614L131.033 170.203L131.109 170.16C132.879 169.133 134.314 169.749 134.314 171.521L134.25 219.938C134.25 221.71 132.803 223.98 131.033 224.995L86.5525 250.565C84.7824 251.592 83.3468 250.976 83.3468 249.204V248.199L127.752 222.683Z" fill="#06033E"/>
<path opacity="0.4" d="M78.048 174.666L122.432 148.945C123.619 148.264 124.299 147.291 124.299 146.297C124.299 145.422 123.792 144.633 122.863 144.103L80.9839 119.895C79.203 118.868 76.2239 118.977 74.1947 120.144L29.8112 145.865C28.6239 146.546 27.9439 147.518 27.9439 148.513C27.9439 149.388 28.4512 150.177 29.3795 150.707L71.2588 174.915C72.0791 175.39 73.1477 175.617 74.2703 175.617C75.5871 175.617 76.9579 175.293 78.048 174.666ZM80.196 121.268L122.075 145.476C122.313 145.616 122.712 145.908 122.712 146.286C122.712 146.686 122.302 147.173 121.644 147.551L77.2601 173.272C75.7382 174.147 73.3636 174.266 72.0683 173.521L30.189 149.312C29.9515 149.172 29.5522 148.88 29.5522 148.502C29.5522 148.102 29.9623 147.616 30.6207 147.237L75.0042 121.516C75.8461 121.03 76.9579 120.771 78.0048 120.771C78.836 120.771 79.6239 120.933 80.196 121.268Z" fill="#06033E"/>
<path opacity="0.5" d="M57.3445 214.502L56.9667 214.286C55.5959 213.486 54.4734 211.335 54.4734 209.509V203.154C54.4734 201.317 55.5959 200.463 56.9667 201.263L57.3445 201.479C58.7153 202.279 59.8378 204.429 59.8378 206.256V212.61C59.8486 214.448 58.7261 215.301 57.3445 214.502Z" fill="#E60D2E"/>
<path d="M57.3445 233.241L56.9667 233.025C55.5959 232.226 54.4734 230.075 54.4734 228.249V221.894C54.4734 220.057 55.5959 219.203 56.9667 220.003L57.3445 220.219C58.7153 221.018 59.8378 223.169 59.8378 224.996V231.35C59.8486 233.187 58.7261 234.041 57.3445 233.241Z" fill="#E60D2E"/>
<path d="M45.2781 207.531L44.9003 207.315C43.5295 206.515 42.407 204.365 42.407 202.538V196.183C42.407 194.346 43.5295 193.492 44.9003 194.292L45.2781 194.508C46.6489 195.308 47.7714 197.459 47.7714 199.285V205.64C47.7822 207.477 46.6597 208.32 45.2781 207.531Z" fill="#E60D2E"/>
<path d="M45.2781 226.271L44.9003 226.055C43.5295 225.255 42.407 223.104 42.407 221.278V214.923C42.407 213.086 43.5295 212.232 44.9003 213.032L45.2781 213.248C46.6489 214.048 47.7714 216.198 47.7714 218.025V224.38C47.7822 226.206 46.6597 227.06 45.2781 226.271Z" fill="#E60D2E"/>
<path d="M33.2097 200.55L32.832 200.333C31.4612 199.534 30.3386 197.383 30.3386 195.557V189.202C30.3386 187.365 31.4612 186.511 32.832 187.311L33.2097 187.527C34.5805 188.327 35.703 190.477 35.703 192.304V198.658C35.7138 200.496 34.5913 201.349 33.2097 200.55Z" fill="#E60D2E"/>
<path opacity="0.5" d="M33.2097 219.289L32.832 219.073C31.4612 218.273 30.3386 216.123 30.3386 214.296V207.942C30.3386 206.105 31.4612 205.251 32.832 206.05L33.2097 206.267C34.5805 207.066 35.703 209.217 35.703 211.043V217.398C35.7138 219.235 34.5913 220.089 33.2097 219.289Z" fill="#E60D2E"/>
<path d="M140.868 108.861C142.551 107.888 143.199 106.591 142.8 105.457C142.551 106.202 141.925 106.937 140.868 107.553" fill="white"/>
<path d="M122.054 283.225C121.276 283.225 120.499 283.02 119.798 282.609L92.695 267.241C92.3604 267.046 92.2416 266.625 92.4251 266.279C92.6194 265.944 93.0403 265.825 93.3857 266.009L120.499 281.377C121.482 281.95 122.647 281.939 123.619 281.377C124.59 280.815 125.173 279.799 125.173 278.675V225.568C125.173 223.029 123.813 220.662 121.611 219.397L109.231 212.243C108.896 212.048 108.777 211.616 108.972 211.281C109.166 210.946 109.598 210.827 109.932 211.022L122.313 218.176C124.946 219.7 126.576 222.531 126.576 225.568V278.675C126.576 280.307 125.734 281.777 124.32 282.587C123.608 283.02 122.831 283.225 122.054 283.225Z" fill="#E60D2E"/>
<path opacity="0.5" d="M182.565 138.646L183.849 139.391L198.928 130.681L197.643 129.935L182.565 138.646Z" fill="#000028"/>
<path opacity="0.5" d="M183.848 139.391V145.714L182.563 144.968V138.646L183.848 139.391Z" fill="#000028"/>
<g clip-path="url(#clip1)">
<path d="M132.567 156.846V140.027L94.5262 140.009L81.384 132.475C78.3595 130.743 73.1026 130.957 69.6101 132.957L57.35 139.974H19.2737V157.275C19.1836 158.435 19.8498 159.578 21.29 160.399L70.4562 188.556C73.4807 190.288 78.7376 190.074 82.2302 188.074L129.704 160.899C131.702 159.721 132.675 158.239 132.567 156.846Z" fill="#5A4B77"/>
<path d="M75.9111 131.314C73.6968 131.368 71.4104 131.921 69.6101 132.957L57.35 139.974H19.2737V157.275C19.1836 158.435 19.8498 159.578 21.29 160.399L70.4562 188.556C71.9145 189.395 73.8768 189.77 75.9111 189.717V131.314Z" fill="#5A4B77"/>
<path opacity="0.3" d="M23.5764 139.974H19.2737V157.275C19.1836 158.435 19.8498 159.578 21.29 160.399L23.5764 161.703V139.974Z" fill="#06033E"/>
<path opacity="0.3" d="M71.2129 188.913C73.8233 190.02 77.586 189.949 80.6285 188.806V169.166H71.2129V188.913Z" fill="#06033E"/>
<path d="M70.4586 171.309L21.2924 143.153C18.2679 141.421 18.6459 138.403 22.1385 136.421L69.6124 109.229C73.105 107.229 78.3619 107.015 81.3864 108.747L130.553 136.903C133.577 138.635 133.199 141.653 129.706 143.635L82.2325 170.827C78.74 172.809 73.4651 173.041 70.4586 171.309Z" fill="#9E90B2"/>
<path d="M129.687 140.331L82.2308 167.506C78.7382 169.505 73.4813 169.72 70.4568 167.988L21.2906 139.849C20.6245 139.456 20.1204 139.01 19.7783 138.528C18.7342 140.188 19.2202 141.974 21.2906 143.17L70.4568 171.327C73.4813 173.058 78.7382 172.844 82.2308 170.845L129.705 143.67C132.405 142.116 133.233 139.956 132.063 138.26C131.577 138.974 130.785 139.706 129.687 140.331Z" fill="white"/>
<path d="M114.474 161.292C114.474 162.542 113.592 164.078 112.494 164.702C111.396 165.327 110.514 164.827 110.514 163.56C110.514 162.31 111.396 160.774 112.494 160.15C113.592 159.525 114.474 160.042 114.474 161.292Z" fill="#F8F8F8"/>
<path d="M120.865 157.632C120.865 158.882 119.983 160.417 118.885 161.042C117.786 161.667 116.904 161.167 116.904 159.9C116.904 158.65 117.786 157.114 118.885 156.489C119.983 155.864 120.865 156.382 120.865 157.632Z" fill="#F8F8F8"/>
<path d="M127.256 153.972C127.256 155.222 126.373 156.757 125.275 157.382C124.177 158.007 123.295 157.507 123.295 156.239C123.295 154.99 124.177 153.454 125.275 152.829C126.373 152.204 127.256 152.722 127.256 153.972Z" fill="#F8F8F8"/>
<path d="M73.3549 153.847L50.347 140.67C48.9428 139.867 49.1048 138.456 50.7431 137.51L72.9588 124.797C74.5971 123.869 77.0635 123.762 78.4677 124.565L101.476 137.742C102.88 138.545 102.718 139.956 101.079 140.902L78.8638 153.615C77.2435 154.561 74.7771 154.668 73.3549 153.847Z" fill="#817199"/>
<path d="M75.5686 142.831L72.3821 141.009C72.184 140.902 72.22 140.706 72.4361 140.581L75.5146 138.813C75.7486 138.688 76.0727 138.67 76.2707 138.777L79.4572 140.599C79.6553 140.706 79.6193 140.902 79.4032 141.027L76.3247 142.795C76.0907 142.92 75.7486 142.938 75.5686 142.831Z" fill="#F8F8F8"/>
<path d="M50.3468 140.687L50.4188 140.723C50.5268 140.651 50.6169 140.562 50.7429 140.491L72.9586 127.778C74.5969 126.85 77.0633 126.743 78.4675 127.546L101.403 140.687C102.7 139.759 102.772 138.509 101.475 137.759L78.4675 124.582C77.0633 123.779 74.5969 123.868 72.9586 124.814L50.7429 137.527C49.1226 138.455 48.9426 139.866 50.3468 140.687Z" fill="#5A4B77"/>
</g>
</g>
<defs>
<linearGradient id="paint0_linear" x1="119.781" y1="126.305" x2="322.3" y2="126.305" gradientUnits="userSpaceOnUse">
<stop stop-color="#42E8E0"/>
<stop offset="0.1507" stop-color="#43E3E0"/>
<stop offset="0.3285" stop-color="#45D5DF"/>
<stop offset="0.5199" stop-color="#49BDDD"/>
<stop offset="0.7209" stop-color="#4E9CDB"/>
<stop offset="0.9274" stop-color="#5472D8"/>
<stop offset="1" stop-color="#5761D7"/>
</linearGradient>
<linearGradient id="paint1_linear" x1="1.00967" y1="186.502" x2="61.1503" y2="220.381" gradientUnits="userSpaceOnUse">
<stop stop-color="#3919BB"/>
<stop offset="1" stop-color="#6507FA"/>
</linearGradient>
<clipPath id="clip0">
<rect width="374" height="294" fill="white" transform="matrix(-1 0 0 1 374 0.205078)"/>
</clipPath>
<clipPath id="clip1">
<rect width="113.311" height="111.824" fill="white" transform="translate(19.2559 107.585)"/>
</clipPath>
</defs>
</svg>
